<svg xmlns="http://www.w3.org/2000/svg" xmlns:xlink="http://www.w3.org/1999/xlink" width="500" zoomAndPan="magnify" viewBox="0 0 375 187.499995" height="250" preserveAspectRatio="xMidYMid meet" version="1.0"><path fill="#000000" d="M 47.464844 96.777344 C 46.824219 80.902344 52.164062 67.753906 63.789062 57.21875 C 87.78125 35.488281 127.898438 44.734375 139.992188 74.78125 C 152.207031 105.128906 132.960938 137.671875 100.519531 141.535156 C 75.808594 144.472656 51.738281 126.054688 48.011719 101.339844 C 47.792969 99.90625 47.648438 98.464844 47.464844 96.777344 M 81.628906 95.3125 C 82.988281 103.238281 89.644531 108.359375 97.359375 107.414062 C 104.636719 106.527344 110.273438 99.476562 109.476562 92.136719 C 109.066406 88.332031 107.449219 85.082031 104.425781 82.667969 C 99.355469 78.621094 93.925781 78.488281 87.976562 81.996094 C 87.976562 78.464844 87.980469 75.578125 87.976562 72.691406 C 87.972656 68.671875 87.96875 68.765625 83.863281 68.683594 C 81.886719 68.644531 81.023438 69.234375 81.175781 71.289062 C 81.761719 79.132812 81.382812 87 81.628906 95.3125 M 77.273438 87.53125 C 73.628906 80.675781 66.453125 77.742188 59.570312 80.296875 C 52.988281 82.738281 49.28125 89.820312 50.90625 96.925781 C 53.121094 106.582031 64.40625 110.621094 70.570312 104.984375 C 70.867188 104.710938 71.253906 104.453125 71.722656 104.6875 C 72.878906 107.4375 74.242188 108.089844 77.378906 107.46875 C 78.148438 107.316406 78.714844 107.011719 78.6875 106.191406 C 78.46875 100.078125 79.582031 93.871094 77.273438 87.53125 M 133.976562 97.074219 C 132.875 97.121094 132.457031 98.074219 131.804688 98.714844 C 128.75 101.714844 124.214844 101.808594 121.203125 98.933594 C 118.253906 96.117188 118.152344 91.265625 120.984375 88.332031 C 123.847656 85.363281 128.691406 85.042969 131.527344 88.144531 C 134.011719 90.863281 136.679688 89.804688 139.472656 89.820312 C 138.738281 83.621094 132.28125 79.105469 125.179688 79.527344 C 117.890625 79.964844 112.300781 86.238281 112.390625 93.882812 C 112.476562 101.011719 118.386719 107.148438 125.472656 107.46875 C 132.40625 107.78125 138.882812 103.113281 139.417969 97.296875 C 137.773438 96.816406 136.070312 97.136719 133.976562 97.074219 Z M 133.976562 97.074219 " fill-opacity="1" fill-rule="nonzero"/><path fill="#000000" d="M 248.484375 94.972656 C 246.027344 88.382812 243.613281 81.988281 241.277344 75.566406 C 240.417969 73.199219 239.253906 71.105469 236.734375 69.964844 C 238.324219 68.714844 250.238281 68.617188 251.644531 69.550781 C 251.617188 69.707031 251.640625 69.957031 251.542969 70.019531 C 248.453125 72.042969 248.449219 72.039062 249.761719 75.597656 C 252.480469 82.96875 255.199219 90.34375 257.917969 97.714844 C 258.242188 98.585938 258.429688 99.523438 259.503906 100.605469 C 260.363281 98.328125 260.933594 96.144531 261.964844 94.203125 C 264.753906 88.949219 264.660156 83.832031 261.863281 78.640625 C 261.265625 77.527344 260.992188 76.234375 260.519531 75.046875 C 259.628906 72.8125 258.4375 70.902344 255.691406 70.691406 C 255.183594 70.652344 254.699219 70.410156 254.59375 69.796875 C 255.882812 68.761719 271.421875 68.539062 273.058594 69.589844 C 272.605469 71.074219 271.296875 70.660156 270.3125 70.726562 C 268.328125 70.859375 267.367188 71.78125 268.054688 73.722656 C 271.242188 82.71875 274.5 91.6875 278.011719 101.441406 C 279.226562 97.90625 280.222656 95.140625 281.121094 92.34375 C 282.921875 86.738281 285.167969 81.269531 286.535156 75.527344 C 287.394531 71.917969 287.152344 71.679688 283.5 70.605469 C 283.089844 70.484375 282.6875 70.328125 282.585938 69.828125 C 283.738281 68.757812 291.804688 68.566406 294.003906 69.671875 C 288.863281 74.5625 288.417969 81.511719 286.0625 87.609375 C 283.699219 93.742188 281.773438 100.042969 279.65625 106.269531 C 279.082031 107.964844 278.558594 109.683594 277.933594 111.363281 C 277.539062 112.425781 277.460938 113.878906 275.785156 113.800781 C 274.347656 113.738281 274.125 112.503906 273.75 111.484375 C 271.683594 105.871094 269.640625 100.25 267.578125 94.636719 C 267.261719 93.769531 266.882812 92.921875 266.324219 91.554688 C 263.828125 98.152344 261.507812 104.285156 259.191406 110.421875 C 258.980469 110.980469 258.792969 111.550781 258.570312 112.105469 C 258.214844 112.996094 257.832031 113.859375 256.636719 113.832031 C 255.414062 113.804688 255.132812 112.835938 254.808594 111.972656 C 252.710938 106.371094 250.636719 100.765625 248.484375 94.972656 Z M 248.484375 94.972656 " fill-opacity="1" fill-rule="nonzero"/><path fill="#000000" d="M 185.566406 107.667969 C 176.457031 97.722656 167.464844 87.914062 157.933594 77.515625 C 157.933594 80.085938 157.929688 81.921875 157.933594 83.753906 C 157.945312 90.847656 157.90625 97.941406 157.980469 105.03125 C 158.035156 110.082031 158.46875 110.503906 163.324219 111.265625 C 163.984375 111.367188 164.710938 111.359375 165.054688 112.1875 C 164.832031 113.503906 163.726562 113.335938 162.867188 113.28125 C 158.773438 113.011719 154.683594 112.839844 150.585938 113.265625 C 149.785156 113.347656 148.660156 113.425781 148.617188 112.214844 C 148.578125 111.152344 149.636719 111.273438 150.347656 111.121094 C 153.78125 110.386719 154.21875 109.890625 154.226562 106.289062 C 154.246094 96.378906 154.234375 86.464844 154.230469 76.550781 C 154.230469 73.1875 153.03125 71.667969 149.707031 70.789062 C 148.941406 70.585938 147.933594 70.792969 147.644531 69.675781 C 147.972656 68.640625 148.808594 68.851562 149.550781 68.855469 C 152.796875 68.886719 156.042969 69.027344 159.285156 68.921875 C 161.078125 68.863281 162.328125 69.441406 163.519531 70.753906 C 171.441406 79.488281 179.425781 88.164062 187.382812 96.867188 C 187.886719 97.417969 188.320312 98.035156 188.78125 98.609375 C 189.816406 97.738281 189.519531 96.914062 189.523438 96.195312 C 189.546875 89.785156 189.550781 83.375 189.535156 76.964844 C 189.523438 72.214844 188.871094 71.472656 184.125 70.644531 C 183.480469 70.53125 182.71875 70.589844 182.527344 69.699219 C 183.792969 68.734375 196.101562 68.65625 197.613281 69.597656 C 197.589844 70.523438 196.855469 70.675781 196.199219 70.761719 C 193.609375 71.101562 192.90625 72.746094 192.914062 75.105469 C 192.949219 86.8125 192.945312 98.519531 192.902344 110.230469 C 192.898438 111.347656 193.519531 112.921875 192.160156 113.476562 C 190.65625 114.085938 190.027344 112.410156 189.167969 111.570312 C 187.945312 110.378906 186.839844 109.066406 185.566406 107.667969 Z M 185.566406 107.667969 " fill-opacity="1" fill-rule="nonzero"/><path fill="#000000" d="M 218.191406 110.003906 C 221.148438 109.902344 223.886719 110.199219 226.609375 109.777344 C 229.828125 109.277344 232.390625 107.804688 234.148438 105.003906 C 234.617188 104.257812 234.941406 103.183594 236.570312 103.683594 C 236.222656 106.855469 234.984375 109.789062 233.644531 112.660156 C 233.269531 113.472656 232.125 113.332031 231.28125 113.285156 C 221.625 112.746094 211.972656 113.066406 202.320312 113.296875 C 201.433594 113.316406 200.382812 113.53125 199.953125 112.289062 C 200.34375 111.078125 201.441406 111.304688 202.289062 111.226562 C 204.632812 111.011719 205.5 109.742188 205.488281 107.46875 C 205.449219 96.609375 205.453125 85.753906 205.496094 74.894531 C 205.507812 72.386719 204.753906 70.726562 201.921875 70.683594 C 201.207031 70.671875 200.335938 70.738281 200.027344 69.734375 C 200.421875 68.667969 201.359375 68.835938 202.167969 68.835938 C 211.484375 68.859375 220.800781 68.964844 230.117188 68.894531 C 232.355469 68.878906 233.148438 69.609375 233.101562 71.828125 C 233.046875 74.144531 233.78125 76.5 232.878906 78.796875 C 231.300781 78.609375 231.386719 77.472656 231.230469 76.636719 C 230.753906 74.113281 229.175781 72.785156 226.773438 72.304688 C 223.046875 71.5625 219.277344 72.042969 215.523438 71.976562 C 214.261719 71.957031 214 72.792969 214 73.863281 C 214.015625 78.054688 214.03125 82.242188 213.984375 86.433594 C 213.972656 87.753906 214.457031 88.269531 215.800781 88.207031 C 217.761719 88.117188 219.734375 88.105469 221.695312 88.171875 C 224.683594 88.277344 227.15625 87.625 228.109375 84.351562 C 228.289062 83.730469 228.675781 83.261719 229.417969 83.417969 C 230.132812 83.570312 230.328125 84.160156 230.328125 84.785156 C 230.332031 88.375 230.324219 91.964844 230.289062 95.554688 C 230.285156 96.164062 230.113281 96.792969 229.335938 96.847656 C 228.570312 96.898438 228.320312 96.269531 228.164062 95.707031 C 227.210938 92.253906 224.578125 91.417969 221.449219 91.359375 C 219.65625 91.324219 217.855469 91.394531 216.0625 91.324219 C 214.503906 91.261719 213.957031 91.945312 213.980469 93.46875 C 214.039062 97.570312 213.96875 101.671875 214.007812 105.777344 C 214.035156 108.71875 214.835938 109.527344 218.191406 110.003906 Z M 218.191406 110.003906 " fill-opacity="1" fill-rule="nonzero"/><path fill="#000000" d="M 307.9375 83.773438 C 311.355469 85.386719 314.632812 86.851562 317.675781 88.773438 C 323.464844 92.433594 325.890625 97.398438 324.628906 102.929688 C 323.378906 108.40625 318.578125 112.386719 312.347656 113.445312 C 308.285156 114.132812 304.351562 113.582031 300.414062 112.792969 C 299.054688 112.519531 297.777344 112.226562 296.425781 112.902344 C 295.160156 113.535156 294.519531 112.824219 294.277344 111.597656 C 293.832031 109.335938 293.371094 107.082031 292.9375 104.816406 C 292.796875 104.09375 292.40625 103.199219 293.472656 102.875 C 294.335938 102.613281 294.648438 103.402344 294.941406 104 C 298.105469 110.4375 306.195312 112.300781 312.210938 110.414062 C 315.375 109.425781 317.625 107.378906 318.066406 103.964844 C 318.488281 100.703125 316.484375 98.671875 313.886719 97.230469 C 310.15625 95.160156 306.328125 93.265625 302.582031 91.222656 C 300.316406 89.988281 298.300781 88.410156 296.703125 86.347656 C 292.425781 80.832031 294.070312 73.1875 300.242188 69.9375 C 304.984375 67.441406 309.957031 67.734375 314.996094 68.703125 C 316.980469 69.085938 318.925781 69.953125 321.023438 69.160156 C 321.636719 68.925781 322.359375 69.144531 322.460938 69.835938 C 322.890625 72.816406 322.820312 75.785156 322.542969 78.753906 C 320.792969 78.628906 320.730469 77.601562 320.457031 76.867188 C 317.882812 69.957031 307.492188 69.53125 303.472656 72.4375 C 300.796875 74.371094 300.449219 77.835938 302.695312 80.269531 C 304.113281 81.800781 305.9375 82.753906 307.9375 83.773438 Z M 307.9375 83.773438 " fill-opacity="1" fill-rule="nonzero"/><path fill="#000000" d="M 100.609375 87.945312 C 103.078125 90.664062 103.824219 93.511719 102.199219 96.761719 C 100.75 99.65625 98.324219 101.121094 95.183594 100.988281 C 92.035156 100.855469 89.746094 99.148438 88.527344 96.179688 C 87.304688 93.203125 88.265625 89.675781 90.8125 87.648438 C 93.714844 85.339844 96.851562 85.394531 100.609375 87.945312 Z M 100.609375 87.945312 " fill-opacity="1" fill-rule="nonzero"/><path fill="#000000" d="M 66.585938 100.628906 C 62.570312 101.371094 59.496094 99.898438 57.921875 96.617188 C 56.539062 93.738281 57.226562 90.105469 59.570312 87.933594 C 62.105469 85.585938 65.746094 85.324219 68.777344 87.277344 C 71.472656 89.011719 72.792969 92.484375 71.820312 95.542969 C 71.019531 98.0625 69.292969 99.730469 66.585938 100.628906 Z M 66.585938 100.628906 " fill-opacity="1" fill-rule="nonzero"/></svg>