<svg version="1.1" id="Layer_1" xmlns="http://www.w3.org/2000/svg" xmlns:xlink="http://www.w3.org/1999/xlink" x="0px" y="0px"
	 width="100%" viewBox="0 0 592 592" enable-background="new 0 0 592 592" xml:space="preserve">
<path fill="#000000" opacity="1.000000" stroke="none" 
	d="
M30.695415,306.850281 
	C29.449104,275.903595 39.855213,250.275528 62.521877,229.740280 
	C109.284485,187.374985 187.492203,205.398010 211.067307,263.973389 
	C234.875137,323.127014 197.357620,386.572083 134.120117,394.097137 
	C85.951126,399.829102 39.029350,363.920776 31.759977,315.746857 
	C31.338297,312.952362 31.054108,310.137115 30.695415,306.850281 
M97.296448,303.997375 
	C99.946777,319.445587 112.916451,329.424988 127.956184,327.588196 
	C142.147705,325.854980 153.130768,312.109863 151.582687,297.800415 
	C150.780838,290.388580 147.630905,284.048584 141.731384,279.342926 
	C131.846893,271.458649 121.261772,271.201294 109.671593,278.038849 
	C109.671593,271.153809 109.676826,265.526642 109.670326,259.899506 
	C109.661255,252.060501 109.653893,252.243881 101.653595,252.086578 
	C97.794617,252.010727 96.112335,253.159058 96.412422,257.168152 
	C97.556931,272.458069 96.812325,287.788177 97.296448,303.997375 
M88.803902,288.829407 
	C81.702354,275.464142 67.711037,269.745911 54.294350,274.725342 
	C41.465374,279.486664 34.234947,293.287201 37.407558,307.137268 
	C41.719559,325.961395 63.718700,333.833649 75.734543,322.846039 
	C76.315689,322.314636 77.068199,321.811768 77.981461,322.271454 
	C80.235504,327.633545 82.894897,328.900238 89.006790,327.694366 
	C90.511856,327.397461 91.614220,326.803802 91.557289,325.198151 
	C91.134903,313.282990 93.307213,301.187347 88.803902,288.829407 
M199.339798,307.431732 
	C197.193130,307.521027 196.375168,309.376740 195.104355,310.625366 
	C189.153610,316.472015 180.312515,316.658081 174.441559,311.053925 
	C168.689484,305.563263 168.491943,296.104797 174.009995,290.389496 
	C179.597061,284.602692 189.039078,283.977356 194.560822,290.020477 
	C199.404037,295.320984 204.606979,293.260284 210.050186,293.290192 
	C208.619888,281.202362 196.033401,272.401672 182.188675,273.227417 
	C167.981186,274.074799 157.085190,286.305237 157.263382,301.205353 
	C157.429581,315.102173 168.945969,327.065430 182.760086,327.691315 
	C196.280792,328.303894 208.905716,319.202698 209.948715,307.864777 
	C206.739731,306.926941 203.420532,307.549805 199.339798,307.431732 
z"/>
<path fill="#000000" opacity="1.000000" stroke="none" 
	d="
M422.553101,303.331177 
	C417.768646,290.482635 413.061005,278.020081 408.507843,265.501312 
	C406.828857,260.885010 404.562256,256.804260 399.653259,254.585007 
	C402.751953,252.146973 425.970947,251.953445 428.718475,253.773834 
	C428.658417,254.082138 428.706940,254.564377 428.519958,254.686737 
	C422.492493,258.631592 422.489258,258.626343 425.047577,265.565186 
	C430.346161,279.936249 435.641998,294.308350 440.946411,308.677277 
	C441.573303,310.375397 441.944702,312.204376 444.038879,314.312958 
	C445.710663,309.871521 446.821747,305.614716 448.830292,301.834808 
	C454.272736,291.592621 454.085297,281.615479 448.638519,271.498230 
	C447.466858,269.321899 446.940765,266.806061 446.015289,264.487335 
	C444.277740,260.134033 441.954559,256.409241 436.603333,255.998947 
	C435.611725,255.922928 434.672913,255.448425 434.462708,254.252960 
	C436.973511,252.234894 467.268005,251.807343 470.457733,253.849838 
	C469.574799,256.744354 467.028442,255.936218 465.105499,256.065277 
	C461.234222,256.325012 459.364899,258.125946 460.704224,261.907410 
	C466.915527,279.444489 473.270905,296.930542 480.117004,315.940704 
	C482.479736,309.048065 484.424835,303.659821 486.174591,298.208862 
	C489.683502,287.277832 494.061035,276.616455 496.726929,265.428406 
	C498.404480,258.388367 497.934998,257.922974 490.812897,255.828339 
	C490.017120,255.594299 489.225708,255.292480 489.027435,254.319061 
	C491.279144,252.227875 507.001740,251.859589 511.287659,254.010559 
	C501.266663,263.548676 500.398010,277.088623 495.809906,288.980469 
	C491.199097,300.931274 487.445526,313.212921 483.323792,325.352112 
	C482.199890,328.662231 481.182983,332.011230 479.965027,335.285828 
	C479.194580,337.357239 479.037720,340.184845 475.773956,340.037445 
	C472.972290,339.910889 472.541595,337.505035 471.809235,335.516479 
	C467.780670,324.577637 463.799011,313.621521 459.779053,302.679504 
	C459.156921,300.986176 458.420624,299.334839 457.329193,296.666809 
	C452.467133,309.530121 447.946136,321.488464 443.428375,333.448059 
	C443.016663,334.537994 442.651550,335.646118 442.219360,336.727661 
	C441.523895,338.468109 440.773499,340.151489 438.443298,340.097931 
	C436.060577,340.043091 435.514526,338.155426 434.882660,336.469696 
	C430.791473,325.554993 426.749359,314.621918 422.553101,303.331177 
z"/>
<path fill="#000000" opacity="1.000000" stroke="none" 
	d="
M299.908081,328.081421 
	C282.151276,308.690918 264.622131,289.571564 246.039383,269.303040 
	C246.039383,274.316528 246.035172,277.889832 246.040115,281.463135 
	C246.059265,295.290161 245.987167,309.118195 246.134140,322.943878 
	C246.238770,332.785858 247.084183,333.609833 256.545197,335.090637 
	C257.834442,335.292419 259.253265,335.278503 259.918640,336.889191 
	C259.485474,339.457916 257.332214,339.129059 255.656723,339.019836 
	C247.672913,338.499420 239.704941,338.160858 231.715530,338.990082 
	C230.157349,339.151855 227.965530,339.301758 227.877396,336.942963 
	C227.800018,334.872101 229.866913,335.109863 231.250320,334.813599 
	C237.942368,333.380554 238.799286,332.413086 238.812439,325.394958 
	C238.848618,306.070251 238.825424,286.745422 238.822205,267.420654 
	C238.821121,260.861542 236.485703,257.905182 230.005920,256.190948 
	C228.507065,255.794449 226.543610,256.199371 225.985626,254.021606 
	C226.624146,252.004822 228.254593,252.409470 229.695938,252.423340 
	C236.023224,252.484238 242.356857,252.756882 248.675018,252.550110 
	C252.168243,252.435776 254.605667,253.560135 256.927795,256.120148 
	C272.370697,273.144928 287.935577,290.059143 303.444427,307.024200 
	C304.429504,308.101746 305.277496,309.304626 306.169983,310.425018 
	C308.186707,308.725220 307.610443,307.118835 307.615997,305.715424 
	C307.665649,293.221191 307.673798,280.726593 307.643860,268.232239 
	C307.621674,258.969879 306.345581,257.522583 297.098907,255.907150 
	C295.837830,255.686859 294.354431,255.801758 293.980652,254.068130 
	C296.450897,252.187469 320.440674,252.030991 323.389435,253.868988 
	C323.344849,255.674911 321.915253,255.966248 320.632019,256.135376 
	C315.580933,256.801086 314.217010,260.004913 314.230957,264.603912 
	C314.300140,287.426880 314.288605,310.250275 314.207672,333.073181 
	C314.199921,335.254700 315.407715,338.324463 312.758331,339.402161 
	C309.829529,340.593536 308.605255,337.322998 306.923584,335.685150 
	C304.540710,333.364441 302.387238,330.808167 299.908081,328.081421 
z"/>
<path fill="#000000" opacity="1.000000" stroke="none" 
	d="
M363.506500,332.632263 
	C369.269653,332.433502 374.605225,333.017548 379.916260,332.192719 
	C386.185608,331.219055 391.181274,328.346436 394.609039,322.887024 
	C395.522400,321.432251 396.153046,319.335571 399.329071,320.312927 
	C398.650665,326.499359 396.235352,332.218231 393.630096,337.813110 
	C392.893280,339.395508 390.662384,339.123108 389.018433,339.031464 
	C370.198578,337.982452 351.382172,338.603668 332.563812,339.049042 
	C330.836060,339.089966 328.790070,339.512695 327.951935,337.086182 
	C328.710205,334.730286 330.851196,335.171326 332.503998,335.018555 
	C337.069641,334.596466 338.761261,332.126526 338.744049,327.689056 
	C338.662048,306.524963 338.674133,285.360199 338.755890,264.196045 
	C338.774780,259.305511 337.310303,256.071655 331.785736,255.984192 
	C330.392487,255.962143 328.697388,256.089783 328.091644,254.134781 
	C328.861145,252.052307 330.694275,252.382339 332.265900,252.386063 
	C350.426758,252.429016 368.588440,252.633652 386.747681,252.498184 
	C391.116669,252.465591 392.661346,253.888138 392.565155,258.216827 
	C392.464783,262.734161 393.891418,267.320190 392.131287,271.796387 
	C389.060730,271.437744 389.225830,269.217682 388.919434,267.588684 
	C387.993622,262.666473 384.917633,260.082214 380.236511,259.146942 
	C372.968689,257.694855 365.618591,258.632141 358.305481,258.507904 
	C355.844391,258.466095 355.329315,260.093750 355.336212,262.186401 
	C355.363068,270.352081 355.396454,278.518524 355.305084,286.683319 
	C355.276215,289.262085 356.223389,290.268402 358.840820,290.147278 
	C362.666382,289.970245 366.508911,289.943542 370.336426,290.076721 
	C376.160400,290.279388 380.977112,289.012909 382.838104,282.626709 
	C383.189880,281.419495 383.943420,280.503937 385.385254,280.809937 
	C386.781128,281.106171 387.160126,282.253754 387.161713,283.472534 
	C387.170746,290.470367 387.155701,297.468536 387.088806,304.466003 
	C387.077454,305.652679 386.745300,306.880768 385.230743,306.984467 
	C383.732635,307.087036 383.251587,305.861053 382.946686,304.760742 
	C381.082947,298.035065 375.951111,296.401489 369.854034,296.286407 
	C366.355530,296.220337 362.851166,296.357727 359.356720,296.219421 
	C356.312073,296.098907 355.252502,297.431091 355.295044,300.396973 
	C355.409790,308.394440 355.274475,316.395203 355.348206,324.393646 
	C355.401031,330.125732 356.962433,331.704010 363.506500,332.632263 
z"/>
<path fill="#000000" opacity="1.000000" stroke="none" 
	d="
M538.453491,281.503784 
	C545.112854,284.646271 551.504822,287.504852 557.432007,291.251038 
	C568.716675,298.383392 573.449280,308.063324 570.989380,318.845032 
	C568.554077,329.519501 559.192993,337.277130 547.045715,339.338837 
	C539.124451,340.683319 531.462891,339.611084 523.780762,338.071075 
	C521.137268,337.541107 518.644653,336.968475 516.011047,338.282898 
	C513.542786,339.514832 512.296570,338.129761 511.824829,335.740570 
	C510.954895,331.334442 510.055267,326.934113 509.209259,322.523438 
	C508.938446,321.111511 508.173859,319.370361 510.250641,318.739532 
	C511.934906,318.227905 512.548401,319.762299 513.119751,320.926178 
	C519.280640,333.476837 535.051575,337.108521 546.779785,333.436371 
	C552.951782,331.503906 557.334534,327.513428 558.195312,320.857788 
	C559.017517,314.500671 555.108948,310.542938 550.050110,307.735046 
	C542.776245,303.697662 535.312439,300.003845 528.007263,296.021179 
	C523.593750,293.614960 519.666992,290.539734 516.548889,286.517944 
	C508.213318,275.766479 511.421204,260.864166 523.449402,254.532806 
	C532.695923,249.665649 542.387024,250.233002 552.207092,252.125793 
	C556.077148,252.871750 559.873901,254.559280 563.956482,253.011993 
	C565.152649,252.558670 566.565247,252.982208 566.759216,254.328140 
	C567.596619,260.139130 567.463135,265.931793 566.924622,271.716888 
	C563.513123,271.471375 563.390381,269.467987 562.857422,268.036957 
	C557.840271,254.568024 537.584595,253.741058 529.750244,259.400665 
	C524.534058,263.168854 523.855591,269.927673 528.233398,274.669159 
	C530.992249,277.657288 534.554077,279.516266 538.453491,281.503784 
z"/>
<path fill="#000000" opacity="1.000000" stroke="none" 
	d="
M134.293091,289.636932 
	C139.106735,294.934479 140.564240,300.483673 137.393051,306.820343 
	C134.568604,312.464111 129.840439,315.314575 123.716591,315.055878 
	C117.579430,314.796600 113.114479,311.473297 110.738922,305.686310 
	C108.355507,299.880188 110.235123,293.009918 115.198715,289.056305 
	C120.852211,284.553162 126.966759,284.660187 134.293091,289.636932 
z"/>
<path fill="#000000" opacity="1.000000" stroke="none" 
	d="
M67.972954,314.358673 
	C60.142220,315.804688 54.145992,312.931000 51.077488,306.539490 
	C48.382351,300.925690 49.728436,293.841278 54.294018,289.610779 
	C59.234459,285.032928 66.334068,284.525604 72.241745,288.328247 
	C77.498802,291.712097 80.067871,298.481750 78.173317,304.445190 
	C76.612968,309.356689 73.248192,312.605988 67.972954,314.358673 
z"/>
</svg>