<svg xmlns="http://www.w3.org/2000/svg" xmlns:xlink="http://www.w3.org/1999/xlink" width="500" zoomAndPan="magnify" viewBox="0 0 375 374.999991" height="500" preserveAspectRatio="xMidYMid meet" version="1.0"><path fill="#000000" d="M 10.042969 191.804688 C 9.234375 171.691406 15.996094 155.035156 30.730469 141.6875 C 61.121094 114.15625 111.949219 125.867188 127.269531 163.9375 C 142.742188 202.382812 118.359375 243.617188 77.261719 248.507812 C 45.957031 252.230469 15.460938 228.894531 10.738281 197.585938 C 10.460938 195.769531 10.277344 193.941406 10.042969 191.804688 M 53.328125 189.949219 C 55.050781 199.988281 63.480469 206.476562 73.253906 205.28125 C 82.480469 204.15625 89.617188 195.222656 88.609375 185.921875 C 88.089844 181.105469 86.042969 176.984375 82.207031 173.925781 C 75.785156 168.800781 68.90625 168.636719 61.371094 173.078125 C 61.371094 168.605469 61.375 164.945312 61.371094 161.289062 C 61.367188 156.195312 61.359375 156.3125 56.160156 156.210938 C 53.652344 156.164062 52.558594 156.910156 52.753906 159.515625 C 53.5 169.453125 53.015625 179.414062 53.328125 189.949219 M 47.808594 180.089844 C 43.195312 171.40625 34.101562 167.6875 25.382812 170.925781 C 17.042969 174.019531 12.34375 182.988281 14.40625 191.988281 C 17.210938 204.222656 31.507812 209.339844 39.316406 202.199219 C 39.695312 201.855469 40.183594 201.527344 40.777344 201.824219 C 42.242188 205.3125 43.96875 206.132812 47.941406 205.351562 C 48.921875 205.15625 49.636719 204.773438 49.597656 203.726562 C 49.324219 195.984375 50.738281 188.125 47.808594 180.089844 M 119.648438 192.179688 C 118.253906 192.238281 117.722656 193.445312 116.894531 194.257812 C 113.027344 198.058594 107.28125 198.179688 103.46875 194.535156 C 99.730469 190.96875 99.601562 184.820312 103.1875 181.105469 C 106.816406 177.34375 112.953125 176.9375 116.542969 180.867188 C 119.691406 184.3125 123.074219 182.972656 126.609375 182.992188 C 125.679688 175.132812 117.5 169.414062 108.503906 169.953125 C 99.269531 170.503906 92.1875 178.449219 92.304688 188.136719 C 92.410156 197.167969 99.894531 204.941406 108.875 205.347656 C 117.660156 205.746094 125.867188 199.832031 126.542969 192.464844 C 124.457031 191.851562 122.300781 192.257812 119.648438 192.179688 Z M 119.648438 192.179688 " fill-opacity="1" fill-rule="nonzero"/><path fill="#000000" d="M 264.71875 189.515625 C 261.609375 181.167969 258.550781 173.066406 255.589844 164.929688 C 254.5 161.929688 253.027344 159.277344 249.835938 157.835938 C 251.851562 156.25 266.941406 156.125 268.726562 157.308594 C 268.6875 157.507812 268.71875 157.824219 268.597656 157.902344 C 264.679688 160.464844 264.675781 160.460938 266.339844 164.972656 C 269.785156 174.3125 273.226562 183.652344 276.671875 192.992188 C 277.082031 194.09375 277.320312 195.285156 278.683594 196.652344 C 279.769531 193.765625 280.492188 191 281.796875 188.542969 C 285.335938 181.886719 285.210938 175.402344 281.671875 168.828125 C 280.910156 167.414062 280.570312 165.777344 279.96875 164.269531 C 278.839844 161.441406 277.328125 159.019531 273.851562 158.753906 C 273.207031 158.707031 272.597656 158.398438 272.460938 157.621094 C 274.089844 156.308594 293.78125 156.03125 295.851562 157.359375 C 295.277344 159.238281 293.625 158.714844 292.375 158.796875 C 289.859375 158.964844 288.644531 160.136719 289.515625 162.59375 C 293.550781 173.992188 297.679688 185.355469 302.128906 197.710938 C 303.667969 193.230469 304.929688 189.730469 306.066406 186.1875 C 308.347656 179.082031 311.191406 172.152344 312.925781 164.882812 C 314.015625 160.308594 313.710938 160.003906 309.082031 158.644531 C 308.566406 158.492188 308.050781 158.296875 307.921875 157.664062 C 309.386719 156.304688 319.601562 156.0625 322.390625 157.460938 C 315.875 163.660156 315.3125 172.460938 312.328125 180.191406 C 309.332031 187.957031 306.894531 195.9375 304.214844 203.828125 C 303.484375 205.980469 302.824219 208.15625 302.03125 210.285156 C 301.53125 211.628906 301.429688 213.46875 299.308594 213.371094 C 297.488281 213.289062 297.207031 211.726562 296.730469 210.433594 C 294.113281 203.324219 291.523438 196.203125 288.914062 189.09375 C 288.507812 187.992188 288.03125 186.917969 287.320312 185.183594 C 284.160156 193.546875 281.222656 201.316406 278.285156 209.089844 C 278.019531 209.796875 277.78125 210.519531 277.5 211.222656 C 277.046875 212.351562 276.5625 213.445312 275.046875 213.410156 C 273.496094 213.375 273.144531 212.148438 272.730469 211.054688 C 270.074219 203.960938 267.445312 196.855469 264.71875 189.515625 Z M 264.71875 189.515625 " fill-opacity="1" fill-rule="nonzero"/><path fill="#000000" d="M 185.011719 205.601562 C 173.46875 193 162.078125 180.574219 150 167.402344 C 150 170.660156 149.996094 172.980469 150 175.304688 C 150.011719 184.289062 149.964844 193.277344 150.0625 202.261719 C 150.128906 208.660156 150.679688 209.195312 156.828125 210.15625 C 157.664062 210.289062 158.585938 210.28125 159.019531 211.328125 C 158.738281 212.996094 157.339844 212.78125 156.25 212.710938 C 151.0625 212.371094 145.882812 212.152344 140.691406 212.691406 C 139.679688 212.796875 138.253906 212.894531 138.195312 211.363281 C 138.144531 210.015625 139.488281 210.171875 140.386719 209.976562 C 144.738281 209.046875 145.292969 208.417969 145.304688 203.855469 C 145.328125 191.296875 145.3125 178.738281 145.308594 166.179688 C 145.308594 161.914062 143.789062 159.992188 139.578125 158.878906 C 138.605469 158.621094 137.328125 158.886719 136.964844 157.46875 C 137.382812 156.160156 138.441406 156.421875 139.378906 156.429688 C 143.492188 156.46875 147.605469 156.648438 151.710938 156.511719 C 153.984375 156.4375 155.566406 157.167969 157.078125 158.832031 C 167.113281 169.898438 177.230469 180.890625 187.308594 191.917969 C 187.949219 192.617188 188.5 193.398438 189.078125 194.128906 C 190.390625 193.023438 190.015625 191.976562 190.019531 191.066406 C 190.050781 182.945312 190.058594 174.824219 190.039062 166.707031 C 190.023438 160.683594 189.195312 159.746094 183.183594 158.695312 C 182.363281 158.550781 181.402344 158.625 181.15625 157.5 C 182.761719 156.277344 198.355469 156.175781 200.269531 157.371094 C 200.242188 158.542969 199.3125 158.734375 198.480469 158.84375 C 195.195312 159.277344 194.308594 161.359375 194.320312 164.347656 C 194.363281 179.179688 194.355469 194.011719 194.304688 208.847656 C 194.296875 210.265625 195.082031 212.257812 193.363281 212.960938 C 191.457031 213.734375 190.664062 211.609375 189.570312 210.542969 C 188.019531 209.035156 186.621094 207.375 185.011719 205.601562 Z M 185.011719 205.601562 " fill-opacity="1" fill-rule="nonzero"/><path fill="#000000" d="M 226.34375 208.558594 C 230.089844 208.429688 233.558594 208.808594 237.007812 208.273438 C 241.082031 207.640625 244.328125 205.773438 246.558594 202.226562 C 247.152344 201.28125 247.5625 199.917969 249.625 200.554688 C 249.183594 204.574219 247.613281 208.289062 245.921875 211.925781 C 245.441406 212.957031 243.992188 212.777344 242.925781 212.71875 C 230.691406 212.035156 218.464844 212.441406 206.234375 212.730469 C 205.109375 212.757812 203.78125 213.03125 203.234375 211.453125 C 203.730469 209.921875 205.121094 210.210938 206.195312 210.109375 C 209.160156 209.835938 210.261719 208.230469 210.25 205.347656 C 210.195312 191.59375 210.203125 177.835938 210.257812 164.082031 C 210.269531 160.902344 209.316406 158.800781 205.726562 158.746094 C 204.824219 158.730469 203.71875 158.8125 203.328125 157.542969 C 203.828125 156.191406 205.019531 156.402344 206.039062 156.40625 C 217.84375 156.433594 229.644531 156.566406 241.449219 156.480469 C 244.289062 156.457031 245.292969 157.382812 245.230469 160.195312 C 245.164062 163.132812 246.089844 166.113281 244.949219 169.023438 C 242.953125 168.789062 243.058594 167.34375 242.859375 166.285156 C 242.257812 163.089844 240.257812 161.410156 237.214844 160.800781 C 232.492188 159.855469 227.714844 160.464844 222.964844 160.386719 C 221.363281 160.359375 221.027344 161.414062 221.035156 162.777344 C 221.050781 168.082031 221.074219 173.390625 221.011719 178.695312 C 220.996094 180.371094 221.609375 181.027344 223.3125 180.949219 C 225.796875 180.832031 228.296875 180.816406 230.78125 180.902344 C 234.566406 181.035156 237.699219 180.210938 238.90625 176.058594 C 239.136719 175.277344 239.625 174.679688 240.5625 174.878906 C 241.46875 175.070312 241.714844 175.816406 241.71875 176.609375 C 241.722656 181.15625 241.714844 185.707031 241.671875 190.253906 C 241.664062 191.023438 241.445312 191.824219 240.460938 191.890625 C 239.488281 191.957031 239.175781 191.160156 238.976562 190.445312 C 237.765625 186.074219 234.429688 185.011719 230.46875 184.9375 C 228.195312 184.894531 225.917969 184.984375 223.648438 184.894531 C 221.667969 184.816406 220.980469 185.683594 221.007812 187.609375 C 221.082031 192.808594 220.992188 198.007812 221.042969 203.207031 C 221.074219 206.929688 222.089844 207.957031 226.34375 208.558594 Z M 226.34375 208.558594 " fill-opacity="1" fill-rule="nonzero"/><path fill="#000000" d="M 340.042969 175.332031 C 344.371094 177.371094 348.527344 179.230469 352.378906 181.664062 C 359.714844 186.300781 362.789062 192.59375 361.191406 199.597656 C 359.605469 206.535156 353.523438 211.578125 345.628906 212.917969 C 340.480469 213.792969 335.5 213.09375 330.507812 212.09375 C 328.789062 211.75 327.171875 211.378906 325.457031 212.230469 C 323.855469 213.03125 323.042969 212.132812 322.738281 210.578125 C 322.171875 207.714844 321.589844 204.855469 321.039062 201.988281 C 320.863281 201.074219 320.363281 199.941406 321.714844 199.53125 C 322.808594 199.199219 323.207031 200.195312 323.578125 200.953125 C 327.582031 209.109375 337.832031 211.46875 345.457031 209.082031 C 349.46875 207.828125 352.316406 205.234375 352.875 200.90625 C 353.410156 196.777344 350.867188 194.203125 347.582031 192.378906 C 342.855469 189.753906 338.003906 187.355469 333.253906 184.765625 C 330.386719 183.203125 327.835938 181.203125 325.808594 178.589844 C 320.390625 171.601562 322.476562 161.917969 330.292969 157.800781 C 336.300781 154.636719 342.601562 155.007812 348.984375 156.238281 C 351.5 156.722656 353.964844 157.820312 356.621094 156.8125 C 357.398438 156.519531 358.316406 156.792969 358.441406 157.667969 C 358.984375 161.445312 358.898438 165.210938 358.546875 168.96875 C 356.332031 168.808594 356.25 167.507812 355.90625 166.578125 C 352.644531 157.824219 339.480469 157.289062 334.386719 160.964844 C 330.996094 163.414062 330.558594 167.808594 333.402344 170.890625 C 335.195312 172.832031 337.511719 174.039062 340.042969 175.332031 Z M 340.042969 175.332031 " fill-opacity="1" fill-rule="nonzero"/><path fill="#000000" d="M 77.375 180.617188 C 80.503906 184.058594 81.449219 187.664062 79.390625 191.785156 C 77.554688 195.453125 74.480469 197.304688 70.5 197.136719 C 66.511719 196.96875 63.609375 194.808594 62.066406 191.046875 C 60.515625 187.273438 61.738281 182.808594 64.964844 180.238281 C 68.640625 177.3125 72.613281 177.382812 77.375 180.617188 Z M 77.375 180.617188 " fill-opacity="1" fill-rule="nonzero"/><path fill="#000000" d="M 34.273438 196.683594 C 29.183594 197.625 25.285156 195.753906 23.292969 191.601562 C 21.539062 187.953125 22.414062 183.347656 25.382812 180.597656 C 28.59375 177.625 33.207031 177.292969 37.046875 179.765625 C 40.460938 181.964844 42.132812 186.363281 40.902344 190.242188 C 39.886719 193.433594 37.699219 195.542969 34.273438 196.683594 Z M 34.273438 196.683594 " fill-opacity="1" fill-rule="nonzero"/></svg>