<?xml version="1.0" encoding="UTF-8"?>
<svg version="1.1" xmlns="http://www.w3.org/2000/svg" width="1022" height="1024">
<path d="M0 0 C0.93476166 0.00060425 1.86952332 0.0012085 2.83261108 0.00183105 C101.18227072 0.17314827 198.14196805 28.7886677 280.25 83.1875 C281.32338623 83.89422852 281.32338623 83.89422852 282.41845703 84.61523438 C299.15969096 95.68715834 315.14476434 107.97598857 330.25 121.1875 C330.97960937 121.81785156 331.70921875 122.44820313 332.4609375 123.09765625 C334.40207512 124.78176577 336.32621066 126.48361148 338.25 128.1875 C338.9301416 128.78280518 339.6102832 129.37811035 340.31103516 129.99145508 C347.3272801 136.20377087 353.96951828 142.75386405 360.58276367 149.38989258 C362.44142108 151.25393244 364.30539614 153.11253512 366.16992188 154.97070312 C372.07527176 160.87245868 377.88132658 166.78562798 383.25 173.1875 C384.12648789 174.1975843 385.00403978 175.20674662 385.8828125 176.21484375 C393.35844677 184.9442286 400.37719002 193.97773159 407.25 203.1875 C407.78383301 203.90035156 408.31766602 204.61320313 408.86767578 205.34765625 C423.26741334 224.65828696 435.67986492 245.07862759 447.25 266.1875 C447.6929541 266.98687988 448.1359082 267.78625977 448.59228516 268.60986328 C482.66188488 330.27021068 500.62073628 400.31097596 506.25 470.1875 C506.32202637 471.07840332 506.39405273 471.96930664 506.46826172 472.88720703 C513.06324767 559.91653094 495.25103566 648.6528844 389.99633789 832.86157227 C388.75105044 834.3065648 387.50069408 835.74718456 386.25 837.1875 C385.61578125 837.92226563 384.9815625 838.65703125 384.328125 839.4140625 C382.64723897 841.34939458 380.95253533 843.27119342 379.25 845.1875 C378.53070312 845.99960937 377.81140625 846.81171875 377.0703125 847.6484375 C373.13794994 852.05745007 369.14622858 856.34343477 364.92578125 860.4765625 C363.12864522 862.31140068 361.47416351 864.22951275 359.8125 866.1875 C356.87170113 869.60092726 353.70747328 872.50631573 350.2734375 875.4140625 C348.22191028 877.21211917 346.33480459 879.1032426 344.4375 881.0625 C340.52582588 885.03553372 336.29493274 888.49831794 331.94921875 891.984375 C329.59785812 893.90357528 327.35686141 895.8826334 325.125 897.9375 C318.20566723 904.1440063 310.69476542 909.63445027 303.25 915.1875 C302.51539551 915.73631836 301.78079102 916.28513672 301.02392578 916.85058594 C276.92380806 934.77241646 251.02969348 949.66099854 224.25 963.1875 C222.95521729 963.84298828 222.95521729 963.84298828 221.63427734 964.51171875 C169.16117271 990.854656 111.406835 1005.69587617 53.25 1012.1875 C52.22277832 1012.30609375 51.19555664 1012.4246875 50.13720703 1012.546875 C16.84744928 1016.21601018 -18.48825565 1016.02760099 -51.75 1012.1875 C-52.90483887 1012.05859375 -54.05967773 1011.9296875 -55.24951172 1011.796875 C-116.2545168 1004.81101358 -173.8787317 987.51240356 -228.75 960.1875 C-229.78801758 959.67316406 -230.82603516 959.15882813 -231.89550781 958.62890625 C-255.10378324 947.06442231 -276.77577004 933.40877261 -297.75 918.1875 C-298.84030518 917.39666016 -298.84030518 917.39666016 -299.95263672 916.58984375 C-308.62986417 910.26183141 -316.98539636 903.6449801 -325.09960938 896.61132812 C-326.86428681 895.08890227 -328.64171295 893.58240853 -330.421875 892.078125 C-335.86552921 887.46816429 -341.23957707 882.88674468 -346.1953125 877.74609375 C-347.89162726 876.0455169 -349.67306297 874.496633 -351.5 872.9375 C-358.81162189 866.61969079 -365.61335761 859.6852985 -371.8828125 852.3359375 C-373.7777202 850.15560437 -375.72909863 848.03393522 -377.69458008 845.91723633 C-383.30459893 839.86868042 -388.62189297 833.65407522 -393.75 827.1875 C-394.48959961 826.26469238 -394.48959961 826.26469238 -395.24414062 825.32324219 C-419.14363682 795.4560967 -438.78395262 763.38511259 -455.75 729.1875 C-456.36560791 727.95797607 -456.36560791 727.95797607 -456.99365234 726.70361328 C-459.37743116 721.9198981 -461.611602 717.08558731 -463.75 712.1875 C-464.14574219 711.28612305 -464.54148437 710.38474609 -464.94921875 709.45605469 C-499.26707037 630.43739785 -513.14459753 540.86312807 -503.75 455.1875 C-503.62641113 454.03926758 -503.50282227 452.89103516 -503.37548828 451.70800781 C-492.85551275 357.52553599 -456.85412565 267.64164932 -379.734375 171.35546875 C-377.82442617 169.26881206 -375.97054653 167.14361046 -374.125 165 C-371.37036766 161.83280752 -368.46508816 158.87860615 -365.46875 155.94140625 C-363.79578978 154.23422639 -362.27852674 152.46157167 -360.75 150.625 C-355.52008705 144.55877214 -349.47936162 139.26913839 -343.58203125 133.86669922 C-341.95582972 132.37615896 -340.33606846 130.87906721 -338.71875 129.37890625 C-332.58598707 123.73077258 -326.2500062 118.40617339 -319.75 113.1875 C-318.60623062 112.25196215 -317.46302856 111.31573039 -316.3203125 110.37890625 C-307.10056971 102.85974873 -297.55543071 95.92046795 -287.75 89.1875 C-286.85474609 88.56609131 -286.85474609 88.56609131 -285.94140625 87.93212891 C-265.2423645 73.58712973 -243.25794871 61.42830301 -220.75 50.1875 C-219.97317871 49.7951416 -219.19635742 49.4027832 -218.39599609 48.99853516 C-168.03101908 23.67954011 -111.65163707 9.09503344 -55.8125 2.875 C-55.08389771 2.79350708 -54.35529541 2.71201416 -53.60461426 2.62805176 C-35.75003873 0.66493018 -17.95670716 -0.02167255 0 0 Z " fill="#000000" transform="translate(510.75,5.8125)"/>
<path d="M0 0 C27.39 0 54.78 0 83 0 C83.33 47.85 83.66 95.7 84 145 C86.97 141.37 89.94 137.74 93 134 C114.51542824 114.55834797 139.32450413 107.58489586 167.95507812 108.81103516 C206.16251932 111.18215121 241.61448096 127.57067925 269 154 C269.84046875 154.77730469 270.6809375 155.55460938 271.546875 156.35546875 C283.51012262 167.72817389 292.51457358 181.37654115 300 196 C300.32339355 196.6276123 300.64678711 197.25522461 300.97998047 197.90185547 C318.93490128 233.21411909 322.36209768 275.73931586 310.625 313.5625 C309.79576147 316.0619846 308.90597061 318.52579957 308 321 C307.33871094 322.83691406 307.33871094 322.83691406 306.6640625 324.7109375 C298.78705778 345.4696737 287.38160966 363.0752544 272 379 C270.72382812 380.37091797 270.72382812 380.37091797 269.421875 381.76953125 C251.7446746 400.26708077 230.00723374 411.81106012 206 420 C204.76636719 420.42152344 203.53273438 420.84304688 202.26171875 421.27734375 C164.70810434 432.9714775 121.41387716 428.43981498 86.48535156 410.72460938 C70.9300126 402.453456 57.72975105 392.10832829 45 380 C44.03320312 379.11248047 44.03320312 379.11248047 43.046875 378.20703125 C29.28947992 365.18893543 19.91796673 347.98511204 12 331 C11.45214844 329.83082031 10.90429688 328.66164063 10.33984375 327.45703125 C5.54177549 316.40061309 3.20625488 304.80769555 1 293 C0.82763604 292.19691847 0.65527208 291.39383694 0.47768497 290.5664196 C-0.20101071 285.4992441 -0.13378717 280.48968886 -0.12025452 275.38284302 C-0.12153615 273.6171839 -0.12153615 273.6171839 -0.12284368 271.81585491 C-0.12420428 268.55714446 -0.12108553 265.29847395 -0.11606562 262.03976822 C-0.11174225 258.52245842 -0.11320889 255.00515045 -0.1139679 251.48783875 C-0.11449193 245.39668462 -0.11135767 239.30554123 -0.10573006 233.2143898 C-0.09759881 224.40763638 -0.09499817 215.60088815 -0.09374207 206.79413138 C-0.09155411 192.50532944 -0.08490094 178.21653321 -0.07543945 163.92773438 C-0.06625873 150.04850289 -0.05918112 136.16927297 -0.05493164 122.29003906 C-0.05466892 121.43434767 -0.05440619 120.57865628 -0.05413551 119.69703485 C-0.05283046 115.40423022 -0.05156675 111.11142557 -0.05032361 106.81862092 C-0.03995896 71.21240887 -0.02152493 35.60620739 0 0 Z " fill="#FEFEFE" transform="translate(359,245)"/>
<path d="M0 0 C26.33635191 23.25075896 43.66709516 54.67367866 50.51953125 89.0546875 C50.68305021 89.75822263 50.84656918 90.46175776 51.01504326 91.18661213 C52.862139 99.87053426 52.78755414 108.45118676 52.74658203 117.27612305 C52.74601691 118.99200941 52.74633644 120.70789626 52.74746704 122.42378235 C52.74803762 127.05112564 52.73633134 131.67836388 52.72231913 136.3056829 C52.70976234 141.15298658 52.70863738 146.00029304 52.70626831 150.84761047 C52.70006803 160.01291954 52.68367696 169.17818053 52.66356933 178.34346849 C52.63697052 190.73825464 52.62622595 203.13305407 52.6145649 215.5278616 C52.59579525 235.03683953 52.55593991 254.54571604 52.51953125 274.0546875 C25.12953125 274.0546875 -2.26046875 274.0546875 -30.48046875 274.0546875 C-30.81046875 263.4946875 -31.14046875 252.9346875 -31.48046875 242.0546875 C-33.04796875 244.0140625 -34.61546875 245.9734375 -36.23046875 247.9921875 C-50.39705747 264.97682688 -71.71187681 275.13482846 -93.48046875 278.0546875 C-97.81808995 278.34338562 -102.13418616 278.38904067 -106.48046875 278.3671875 C-107.66527832 278.36154785 -108.85008789 278.3559082 -110.07080078 278.35009766 C-147.59793834 277.83672357 -183.71420658 263.17836748 -211.48046875 238.0546875 C-212.74310547 236.971875 -212.74310547 236.971875 -214.03125 235.8671875 C-218.98591563 231.6036769 -223.3557982 227.12189283 -227.48046875 222.0546875 C-228.22941406 221.15492188 -228.97835937 220.25515625 -229.75 219.328125 C-250.12064063 193.98512327 -263.68654165 160.77110003 -264.48046875 128.0546875 C-264.50625 127.2611084 -264.53203125 126.4675293 -264.55859375 125.64990234 C-265.85806558 82.15820456 -251.40176194 41.64904038 -221.53125 9.7890625 C-208.93770103 -3.31460491 -195.48280609 -13.40569446 -179.48046875 -21.9453125 C-178.07474609 -22.72648437 -178.07474609 -22.72648437 -176.640625 -23.5234375 C-162.88351773 -30.85541613 -147.82915575 -35.48813826 -132.48046875 -37.9453125 C-131.45050781 -38.14898437 -130.42054688 -38.35265625 -129.359375 -38.5625 C-82.99922312 -46.8471783 -35.10700538 -30.12050103 0 0 Z " fill="#FEFEFE" transform="translate(285.48046875,393.9453125)"/>
<path d="M0 0 C46.04545287 -1.58367852 86.5382766 14.95916183 119.97460938 46.078125 C120.65265625 46.70203125 121.33070313 47.3259375 122.02929688 47.96875 C140.54782724 65.66919268 156.80502394 92.84476393 161.97460938 118.078125 C161.99663176 120.07800375 161.99928394 122.07827721 161.97460938 124.078125 C150.78741255 124.37996087 139.60119077 124.61062671 128.41074467 124.75168324 C123.21368716 124.81940363 118.0194237 124.91115966 112.82397461 125.05883789 C107.80515291 125.20059497 102.78900882 125.27791557 97.76833916 125.31152916 C95.85787221 125.3354646 93.94754454 125.38221407 92.03822517 125.45261574 C77.44167608 125.96918852 77.44167608 125.96918852 73.30113983 122.79537201 C70.08055718 119.30733963 68.07520653 115.32044269 65.97460938 111.078125 C57.23655834 99.63355655 45.13773023 93.1133016 31.97460938 88.078125 C31.15476562 87.72621094 30.33492187 87.37429688 29.49023438 87.01171875 C13.16185227 80.95196204 -5.99394216 83.31027374 -21.77539062 89.890625 C-23.2053571 90.59335138 -24.62133009 91.32496997 -26.02539062 92.078125 C-26.96769531 92.57054687 -27.91 93.06296875 -28.88085938 93.5703125 C-46.07681639 103.02917859 -57.95450378 117.91363283 -63.84350586 136.68603516 C-65.9699587 144.31865023 -66.45318706 151.4326252 -66.33789062 159.328125 C-66.34272461 161.00648438 -66.34272461 161.00648438 -66.34765625 162.71875 C-66.22807343 181.15624594 -58.34527505 199.2576282 -45.65820312 212.6328125 C-29.81390618 227.34873221 -10.10833029 235.19485737 11.61523438 234.41796875 C28.2034216 233.37470988 44.33051033 226.91194555 56.97460938 216.078125 C58.40160156 214.97404297 58.40160156 214.97404297 59.85742188 213.84765625 C63.29700383 210.97991148 65.71408906 207.63367176 68.22460938 203.953125 C68.65773438 203.33308594 69.09085938 202.71304688 69.53710938 202.07421875 C71.38031748 199.42887378 73.18617444 196.7607774 74.97460938 194.078125 C77.8156137 193.79193775 80.43771518 193.69996756 83.27978516 193.73754883 C84.13839142 193.73711075 84.99699768 193.73667267 85.88162231 193.73622131 C88.72795116 193.73831626 91.57369557 193.76168033 94.41992188 193.78515625 C96.39004189 193.7907497 98.36016607 193.79502098 100.33029175 193.79801941 C105.52210967 193.80948795 110.71367684 193.83897238 115.90539551 193.87213135 C121.2005677 193.90278899 126.49578031 193.91651552 131.79101562 193.93164062 C142.1856572 193.96384018 152.58011246 194.01506074 162.97460938 194.078125 C162.51320221 195.97110021 162.04852943 197.86327958 161.58251953 199.75512695 C161.32411285 200.80892044 161.06570618 201.86271393 160.79946899 202.94844055 C154.02427277 228.65490717 140.25350862 251.00724572 121.97460938 270.078125 C120.75064453 271.39683594 120.75064453 271.39683594 119.50195312 272.7421875 C108.62918749 284.11135334 95.91728799 292.85525199 81.97460938 300.078125 C81.3279834 300.41440918 80.68135742 300.75069336 80.01513672 301.09716797 C42.33754861 320.40296462 -1.63329723 323.46095193 -41.98632812 310.8046875 C-64.75736535 303.23181091 -84.63222717 290.54292494 -102.02539062 274.078125 C-103.33443359 272.86576172 -103.33443359 272.86576172 -104.66992188 271.62890625 C-121.33985416 255.6744217 -132.36885375 236.26624537 -141.02539062 215.078125 C-141.4146875 214.17191406 -141.80398438 213.26570312 -142.20507812 212.33203125 C-147.51800553 199.13208372 -150.17097347 183.21421588 -150.19335938 169.046875 C-150.19668777 168.29329712 -150.20001617 167.53971924 -150.20344543 166.76330566 C-150.20848279 165.17326461 -150.21085475 163.58321309 -150.21069336 161.99316406 C-150.2128594 159.61244258 -150.23099241 157.23220101 -150.25 154.8515625 C-150.3013437 141.45155448 -149.18857678 128.55423087 -145.33789062 115.640625 C-144.9448877 114.30487427 -144.9448877 114.30487427 -144.54394531 112.94213867 C-136.7135968 87.16069308 -122.58430468 65.40481153 -104.02539062 46.078125 C-103.49405518 45.5227002 -102.96271973 44.96727539 -102.4152832 44.39501953 C-91.3296943 33.02558686 -78.1280149 24.24589461 -64.02539062 17.078125 C-62.9503125 16.52640625 -61.87523437 15.9746875 -60.76757812 15.40625 C-41.93313213 6.24864969 -20.92883184 0.80728377 0 0 Z " fill="#FEFEFE" transform="translate(840.025390625,353.921875)"/>
<path d="M0 0 C1.41549104 1.18524481 2.81150687 2.39412103 4.1875 3.625 C4.92355469 4.26824219 5.65960938 4.91148437 6.41796875 5.57421875 C21.67964597 19.78517809 28.82414483 38.49196183 29.57250977 59.09008789 C30.00976273 81.76826398 21.36330799 99.93914584 5.875 116.3125 C-8.62219742 130.38841134 -27.77763787 137.15040027 -47.7175293 136.97875977 C-68.82124621 136.38509229 -87.05896767 127.52606765 -101.8125 112.625 C-111.67161468 102.08717816 -117.14923917 89.4508554 -120.8125 75.625 C-121.0751062 74.69482056 -121.0751062 74.69482056 -121.34301758 73.74584961 C-125.58193945 54.59685621 -119.58773688 34.97457176 -109.8125 18.625 C-98.84967563 2.10229743 -82.89422743 -8.66039894 -63.8125 -13.375 C-62.99652344 -13.59929687 -62.18054688 -13.82359375 -61.33984375 -14.0546875 C-40.30182083 -19.18248608 -17.1320491 -12.73845992 0 0 Z " fill="#010101" transform="translate(225.8125,452.375)"/>
<path d="M0 0 C15.8070983 12.0721894 26.33519104 30.25820698 29 50 C30.67804566 70.26140256 26.0030906 91.05986634 13 107 C12.32066406 107.84175781 11.64132812 108.68351563 10.94140625 109.55078125 C-1.88220215 124.61452089 -20.25616975 134.22193081 -40 136 C-61.28726247 137.28821727 -79.56269097 132.00595707 -96 118 C-96.99 117.278125 -97.98 116.55625 -99 115.8125 C-111.4392874 105.19947917 -120.16868386 87.03595958 -122 71 C-123.24848128 49.31618896 -120.28789088 29.34801847 -105.93359375 12.1484375 C-77.16510332 -19.81655186 -35.11955114 -25.1656086 0 0 Z " fill="#010101" transform="translate(564,453)"/>
</svg>
