<svg xmlns="http://www.w3.org/2000/svg" xmlns:xlink="http://www.w3.org/1999/xlink" width="500" zoomAndPan="magnify" viewBox="0 0 375 187.499995" height="250" preserveAspectRatio="xMidYMid meet" version="1.0"><defs><clipPath id="afc33f222f"><path d="M 0.5 43.898438 L 374.5 43.898438 L 374.5 143.382812 L 0.5 143.382812 Z M 0.5 43.898438 " clip-rule="nonzero"/></clipPath></defs><g clip-path="url(#afc33f222f)"><path fill="#ffffff" d="M 238.507812 198.414062 C 158.222656 198.414062 78.144531 198.414062 -1.933594 198.414062 C -1.933594 128.601562 -1.933594 58.789062 -1.933594 -11.023438 C 123.734375 -11.023438 249.398438 -11.023438 375.0625 -11.023438 C 375.0625 58.789062 375.0625 128.601562 375.0625 198.414062 C 329.613281 198.414062 284.164062 198.414062 238.507812 198.414062 M 10.285156 99.769531 C 10.285156 105.886719 10.285156 112.003906 10.285156 118.339844 C 11.214844 118.339844 11.894531 118.339844 12.574219 118.339844 C 20.460938 118.339844 28.347656 118.359375 36.234375 118.320312 C 37.691406 118.3125 39.171875 118.199219 40.601562 117.925781 C 48.808594 116.367188 53.210938 109.09375 50.722656 101.152344 C 49.449219 97.089844 46.660156 94.410156 42.417969 93.074219 C 50.019531 90.121094 51.433594 82.875 49.421875 77.5625 C 47.308594 71.980469 42.847656 69.53125 37.195312 69.429688 C 26.9375 69.246094 16.675781 69.363281 6.417969 69.367188 C 6.324219 69.367188 6.226562 69.503906 6.007812 69.679688 C 6.753906 70.648438 7.429688 71.699219 8.273438 72.582031 C 9.851562 74.238281 10.414062 76.105469 10.367188 78.414062 C 10.230469 85.390625 10.296875 92.371094 10.285156 99.769531 M 129.699219 94.210938 C 124.542969 87.1875 119.253906 80.261719 114.304688 73.101562 C 112.316406 70.230469 110.222656 68.78125 106.644531 69.261719 C 104.109375 69.601562 101.488281 69.328125 98.90625 69.328125 C 97.984375 69.328125 97.0625 69.328125 95.765625 69.328125 C 96.972656 70.871094 97.777344 72.097656 98.777344 73.136719 C 100.285156 74.707031 100.675781 76.484375 100.664062 78.628906 C 100.574219 91.121094 100.621094 103.613281 100.621094 116.105469 C 100.621094 116.839844 100.621094 117.574219 100.621094 118.253906 C 104.269531 118.253906 107.640625 118.253906 111.199219 118.253906 C 111.199219 107.6875 111.199219 97.28125 111.199219 86.613281 C 111.546875 87 111.691406 87.132812 111.804688 87.289062 C 119.050781 97.179688 126.289062 107.082031 133.5625 116.957031 C 133.976562 117.519531 134.648438 118.25 135.230469 118.273438 C 138.269531 118.40625 141.316406 118.335938 144.398438 118.335938 C 144.398438 101.871094 144.398438 85.660156 144.398438 69.402344 C 140.90625 69.402344 137.570312 69.402344 133.957031 69.402344 C 133.957031 79.4375 133.957031 89.402344 133.957031 99.882812 C 132.367188 97.757812 131.128906 96.101562 129.699219 94.210938 M 217.78125 69.328125 C 216.078125 69.328125 214.375 69.328125 212.335938 69.328125 C 213.464844 70.785156 214.265625 72 215.25 73.046875 C 216.777344 74.667969 217.214844 76.46875 217.195312 78.703125 C 217.085938 91.195312 217.144531 103.691406 217.144531 116.183594 C 217.144531 116.914062 217.144531 117.644531 217.144531 118.320312 C 220.789062 118.320312 224.117188 118.320312 227.65625 118.320312 C 227.65625 107.757812 227.65625 97.28125 227.65625 86.421875 C 228.214844 87.132812 228.515625 87.492188 228.792969 87.867188 C 235.925781 97.589844 243.050781 107.316406 250.203125 117.023438 C 250.585938 117.539062 251.164062 118.253906 251.675781 118.273438 C 254.789062 118.390625 257.902344 118.332031 260.988281 118.332031 C 260.988281 101.84375 260.988281 85.617188 260.988281 69.40625 C 257.519531 69.40625 254.1875 69.40625 250.679688 69.40625 C 250.679688 79.488281 250.679688 89.496094 250.679688 100.046875 C 249.878906 98.988281 249.390625 98.355469 248.914062 97.714844 C 242.285156 88.75 235.640625 79.796875 229.050781 70.800781 C 228.277344 69.75 227.523438 69.226562 226.152344 69.292969 C 223.507812 69.417969 220.851562 69.328125 217.78125 69.328125 M 355.390625 88.816406 C 353.070312 82.785156 350.71875 76.765625 348.453125 70.710938 C 348.035156 69.597656 347.46875 69.285156 346.320312 69.300781 C 340.667969 69.363281 335.015625 69.324219 329.363281 69.335938 C 328.933594 69.335938 328.503906 69.464844 327.882812 69.5625 C 329.242188 71.292969 330.53125 72.761719 331.59375 74.382812 C 332 74.996094 332.203125 76.074219 331.953125 76.738281 C 328.152344 86.824219 324.257812 96.875 320.390625 106.9375 C 318.941406 110.707031 317.503906 114.480469 316 118.410156 C 319.671875 118.410156 323.023438 118.363281 326.367188 118.4375 C 327.476562 118.460938 327.96875 118.070312 328.304688 117.050781 C 328.953125 115.066406 329.679688 113.105469 330.511719 111.195312 C 330.71875 110.714844 331.449219 110.15625 331.945312 110.152344 C 338.574219 110.082031 345.199219 110.105469 351.9375 110.105469 C 352.972656 112.863281 353.992188 115.589844 354.992188 118.261719 C 358.917969 118.261719 362.761719 118.261719 366.800781 118.261719 C 362.988281 108.417969 359.253906 98.769531 355.390625 88.816406 M 309.875 112.5 C 312.171875 110.902344 313.488281 108.992188 313.21875 105.90625 C 312.894531 102.234375 313.140625 98.515625 313.140625 94.816406 C 313.140625 93.664062 313.140625 92.511719 313.140625 91.394531 C 305.617188 91.394531 298.425781 91.394531 290.929688 91.394531 C 292.542969 93.414062 294.113281 95.105469 295.355469 97.007812 C 296.859375 99.304688 298.644531 100.628906 301.503906 100.074219 C 302.070312 99.964844 302.691406 100.140625 303.359375 100.191406 C 303.359375 101.863281 303.445312 103.332031 303.320312 104.78125 C 303.269531 105.382812 302.917969 106.144531 302.449219 106.488281 C 299.035156 108.992188 295.117188 109.960938 290.988281 109.363281 C 283.484375 108.277344 278.804688 102.714844 278.363281 94.746094 C 277.984375 87.976562 281.496094 81.832031 287.121094 79.421875 C 293.511719 76.679688 299.457031 78.359375 304.585938 84.414062 C 307.269531 82.910156 309.96875 81.390625 312.679688 79.871094 C 304.695312 67.394531 288.90625 66.769531 278.519531 73.457031 C 269.585938 79.203125 266.664062 87.839844 268.039062 98.089844 C 268.910156 104.570312 272.089844 109.871094 277.4375 113.539062 C 287.167969 120.214844 300.519531 119.972656 309.875 112.5 M 88.328125 69.328125 C 78.15625 69.328125 67.984375 69.328125 57.75 69.328125 C 57.75 85.75 57.75 101.96875 57.75 118.242188 C 69.296875 118.242188 80.710938 118.242188 92.230469 118.242188 C 92.230469 115.1875 92.230469 112.230469 92.230469 109.027344 C 84.148438 109.027344 76.171875 109.027344 68.230469 109.027344 C 68.230469 105.1875 68.230469 101.589844 68.230469 97.855469 C 74.898438 97.855469 81.433594 97.855469 88.007812 97.855469 C 88.007812 94.761719 88.007812 91.8125 88.007812 88.6875 C 81.339844 88.6875 74.8125 88.6875 68.21875 88.6875 C 68.21875 85.195312 68.21875 81.882812 68.21875 78.320312 C 76.320312 78.320312 84.300781 78.320312 92.238281 78.320312 C 92.238281 75.175781 92.238281 72.285156 92.238281 69.328125 C 90.96875 69.328125 89.859375 69.328125 88.328125 69.328125 M 182.996094 69.328125 C 172.203125 69.328125 161.40625 69.328125 150.597656 69.328125 C 150.597656 72.453125 150.597656 75.339844 150.597656 78.496094 C 158.1875 78.496094 165.65625 78.496094 173.4375 78.496094 C 172.664062 79.617188 172.136719 80.421875 171.566406 81.191406 C 164.863281 90.277344 158.152344 99.355469 151.457031 108.449219 C 151.058594 108.992188 150.542969 109.628906 150.515625 110.242188 C 150.414062 112.871094 150.472656 115.507812 150.472656 118.21875 C 162.984375 118.21875 175.296875 118.21875 187.660156 118.21875 C 187.660156 115.136719 187.660156 112.179688 187.660156 109.046875 C 179.828125 109.046875 172.121094 109.046875 164.089844 109.046875 C 164.703125 108.175781 165.117188 107.558594 165.558594 106.964844 C 172.5 97.621094 179.445312 88.285156 186.375 78.933594 C 186.777344 78.390625 187.300781 77.757812 187.324219 77.144531 C 187.429688 74.589844 187.371094 72.023438 187.371094 69.328125 C 185.902344 69.328125 184.65625 69.328125 182.996094 69.328125 M 206.253906 101.445312 C 206.253906 90.796875 206.253906 80.148438 206.253906 69.425781 C 202.6875 69.425781 199.3125 69.425781 195.894531 69.425781 C 195.894531 85.785156 195.894531 102.050781 195.894531 118.28125 C 199.40625 118.28125 202.78125 118.28125 206.253906 118.28125 C 206.253906 112.722656 206.253906 107.292969 206.253906 101.445312 Z M 206.253906 101.445312 " fill-opacity="1" fill-rule="nonzero"/></g><path fill="#0c3653" d="M 10.285156 99.558594 C 10.296875 92.371094 10.230469 85.390625 10.367188 78.414062 C 10.414062 76.105469 9.851562 74.238281 8.273438 72.582031 C 7.429688 71.699219 6.753906 70.648438 6.007812 69.679688 C 6.226562 69.503906 6.324219 69.367188 6.417969 69.367188 C 16.675781 69.363281 26.9375 69.246094 37.195312 69.429688 C 42.847656 69.53125 47.308594 71.980469 49.421875 77.5625 C 51.433594 82.875 50.019531 90.121094 42.417969 93.074219 C 46.660156 94.410156 49.449219 97.089844 50.722656 101.152344 C 53.210938 109.09375 48.808594 116.367188 40.601562 117.925781 C 39.171875 118.199219 37.691406 118.3125 36.234375 118.320312 C 28.347656 118.359375 20.460938 118.339844 12.574219 118.339844 C 11.894531 118.339844 11.214844 118.339844 10.285156 118.339844 C 10.285156 112.003906 10.285156 105.886719 10.285156 99.558594 M 29.273438 109.191406 C 31.085938 109.1875 32.902344 109.230469 34.714844 109.167969 C 38.394531 109.039062 40.746094 106.832031 40.710938 103.601562 C 40.675781 100.378906 38.253906 98.035156 34.746094 97.914062 C 32.933594 97.847656 31.117188 97.886719 29.304688 97.886719 C 26.546875 97.882812 23.789062 97.886719 21.070312 97.886719 C 21.070312 101.796875 21.070312 105.402344 21.070312 109.191406 C 23.722656 109.191406 26.289062 109.191406 29.273438 109.191406 M 38.929688 80.777344 C 37.695312 80.0625 36.488281 78.796875 35.21875 78.730469 C 30.511719 78.484375 25.78125 78.632812 21.035156 78.632812 C 21.035156 82.097656 21.035156 85.457031 21.035156 88.804688 C 25.671875 88.804688 30.136719 89.011719 34.578125 88.746094 C 39 88.484375 40.746094 85.253906 38.929688 80.777344 Z M 38.929688 80.777344 " fill-opacity="1" fill-rule="nonzero"/><path fill="#0c3653" d="M 129.792969 94.328125 C 131.128906 96.101562 132.367188 97.757812 133.957031 99.882812 C 133.957031 89.402344 133.957031 79.4375 133.957031 69.402344 C 137.570312 69.402344 140.90625 69.402344 144.398438 69.402344 C 144.398438 85.660156 144.398438 101.871094 144.398438 118.335938 C 141.316406 118.335938 138.269531 118.40625 135.230469 118.273438 C 134.648438 118.25 133.976562 117.519531 133.5625 116.957031 C 126.289062 107.082031 119.050781 97.179688 111.804688 87.289062 C 111.691406 87.132812 111.546875 87 111.199219 86.613281 C 111.199219 97.28125 111.199219 107.6875 111.199219 118.253906 C 107.640625 118.253906 104.269531 118.253906 100.621094 118.253906 C 100.621094 117.574219 100.621094 116.839844 100.621094 116.105469 C 100.621094 103.613281 100.574219 91.121094 100.664062 78.628906 C 100.675781 76.484375 100.285156 74.707031 98.777344 73.136719 C 97.777344 72.097656 96.972656 70.871094 95.765625 69.328125 C 97.0625 69.328125 97.984375 69.328125 98.90625 69.328125 C 101.488281 69.328125 104.109375 69.601562 106.644531 69.261719 C 110.222656 68.78125 112.316406 70.230469 114.304688 73.101562 C 119.253906 80.261719 124.542969 87.1875 129.792969 94.328125 Z M 129.792969 94.328125 " fill-opacity="1" fill-rule="nonzero"/><path fill="#0a3552" d="M 217.988281 69.328125 C 220.851562 69.328125 223.507812 69.417969 226.152344 69.292969 C 227.523438 69.226562 228.277344 69.75 229.050781 70.800781 C 235.640625 79.796875 242.285156 88.75 248.914062 97.714844 C 249.390625 98.355469 249.878906 98.988281 250.679688 100.046875 C 250.679688 89.496094 250.679688 79.488281 250.679688 69.40625 C 254.1875 69.40625 257.519531 69.40625 260.988281 69.40625 C 260.988281 85.617188 260.988281 101.84375 260.988281 118.332031 C 257.902344 118.332031 254.789062 118.390625 251.675781 118.273438 C 251.164062 118.253906 250.585938 117.539062 250.203125 117.023438 C 243.050781 107.316406 235.925781 97.589844 228.792969 87.867188 C 228.515625 87.492188 228.214844 87.132812 227.65625 86.421875 C 227.65625 97.28125 227.65625 107.757812 227.65625 118.320312 C 224.117188 118.320312 220.789062 118.320312 217.144531 118.320312 C 217.144531 117.644531 217.144531 116.914062 217.144531 116.183594 C 217.144531 103.691406 217.085938 91.195312 217.195312 78.703125 C 217.214844 76.46875 216.777344 74.667969 215.25 73.046875 C 214.265625 72 213.464844 70.785156 212.335938 69.328125 C 214.375 69.328125 216.078125 69.328125 217.988281 69.328125 Z M 217.988281 69.328125 " fill-opacity="1" fill-rule="nonzero"/><path fill="#0b3552" d="M 355.457031 88.96875 C 359.253906 98.769531 362.988281 108.417969 366.800781 118.261719 C 362.761719 118.261719 358.917969 118.261719 354.992188 118.261719 C 353.992188 115.589844 352.972656 112.863281 351.9375 110.105469 C 345.199219 110.105469 338.574219 110.082031 331.945312 110.152344 C 331.449219 110.15625 330.71875 110.714844 330.511719 111.195312 C 329.679688 113.105469 328.953125 115.066406 328.304688 117.050781 C 327.96875 118.070312 327.476562 118.460938 326.367188 118.4375 C 323.023438 118.363281 319.671875 118.410156 316 118.410156 C 317.503906 114.480469 318.941406 110.707031 320.390625 106.9375 C 324.257812 96.875 328.152344 86.824219 331.953125 76.738281 C 332.203125 76.074219 332 74.996094 331.59375 74.382812 C 330.53125 72.761719 329.242188 71.292969 327.882812 69.5625 C 328.503906 69.464844 328.933594 69.335938 329.363281 69.335938 C 335.015625 69.324219 340.667969 69.363281 346.320312 69.300781 C 347.46875 69.285156 348.035156 69.597656 348.453125 70.710938 C 350.71875 76.765625 353.070312 82.785156 355.457031 88.96875 M 337.203125 100.890625 C 341.007812 100.890625 344.808594 100.890625 348.890625 100.890625 C 346.328125 93.796875 343.867188 86.980469 341.261719 79.769531 C 338.660156 86.976562 336.179688 93.839844 333.636719 100.890625 C 334.867188 100.890625 335.835938 100.890625 337.203125 100.890625 Z M 337.203125 100.890625 " fill-opacity="1" fill-rule="nonzero"/><path fill="#0b3653" d="M 309.757812 112.59375 C 300.519531 119.972656 287.167969 120.214844 277.4375 113.539062 C 272.089844 109.871094 268.910156 104.570312 268.039062 98.089844 C 266.664062 87.839844 269.585938 79.203125 278.519531 73.457031 C 288.90625 66.769531 304.695312 67.394531 312.679688 79.871094 C 309.96875 81.390625 307.269531 82.910156 304.585938 84.414062 C 299.457031 78.359375 293.511719 76.679688 287.121094 79.421875 C 281.496094 81.832031 277.984375 87.976562 278.363281 94.746094 C 278.804688 102.714844 283.484375 108.277344 290.988281 109.363281 C 295.117188 109.960938 299.035156 108.992188 302.449219 106.488281 C 302.917969 106.144531 303.269531 105.382812 303.320312 104.78125 C 303.445312 103.332031 303.359375 101.863281 303.359375 100.191406 C 302.691406 100.140625 302.070312 99.964844 301.503906 100.074219 C 298.644531 100.628906 296.859375 99.304688 295.355469 97.007812 C 294.113281 95.105469 292.542969 93.414062 290.929688 91.394531 C 298.425781 91.394531 305.617188 91.394531 313.140625 91.394531 C 313.140625 92.511719 313.140625 93.664062 313.140625 94.816406 C 313.140625 98.515625 312.894531 102.234375 313.21875 105.90625 C 313.488281 108.992188 312.171875 110.902344 309.757812 112.59375 Z M 309.757812 112.59375 " fill-opacity="1" fill-rule="nonzero"/><path fill="#0b3653" d="M 88.535156 69.328125 C 89.859375 69.328125 90.96875 69.328125 92.238281 69.328125 C 92.238281 72.285156 92.238281 75.175781 92.238281 78.320312 C 84.300781 78.320312 76.320312 78.320312 68.21875 78.320312 C 68.21875 81.882812 68.21875 85.195312 68.21875 88.6875 C 74.8125 88.6875 81.339844 88.6875 88.007812 88.6875 C 88.007812 91.8125 88.007812 94.761719 88.007812 97.855469 C 81.433594 97.855469 74.898438 97.855469 68.230469 97.855469 C 68.230469 101.589844 68.230469 105.1875 68.230469 109.027344 C 76.171875 109.027344 84.148438 109.027344 92.230469 109.027344 C 92.230469 112.230469 92.230469 115.1875 92.230469 118.242188 C 80.710938 118.242188 69.296875 118.242188 57.75 118.242188 C 57.75 101.96875 57.75 85.75 57.75 69.328125 C 67.984375 69.328125 78.15625 69.328125 88.535156 69.328125 Z M 88.535156 69.328125 " fill-opacity="1" fill-rule="nonzero"/><path fill="#0b3652" d="M 183.203125 69.328125 C 184.65625 69.328125 185.902344 69.328125 187.371094 69.328125 C 187.371094 72.023438 187.429688 74.589844 187.324219 77.144531 C 187.300781 77.757812 186.777344 78.390625 186.375 78.933594 C 179.445312 88.285156 172.5 97.621094 165.558594 106.964844 C 165.117188 107.558594 164.703125 108.175781 164.089844 109.046875 C 172.121094 109.046875 179.828125 109.046875 187.660156 109.046875 C 187.660156 112.179688 187.660156 115.136719 187.660156 118.21875 C 175.296875 118.21875 162.984375 118.21875 150.472656 118.21875 C 150.472656 115.507812 150.414062 112.871094 150.515625 110.242188 C 150.542969 109.628906 151.058594 108.992188 151.457031 108.449219 C 158.152344 99.355469 164.863281 90.277344 171.566406 81.191406 C 172.136719 80.421875 172.664062 79.617188 173.4375 78.496094 C 165.65625 78.496094 158.1875 78.496094 150.597656 78.496094 C 150.597656 75.339844 150.597656 72.453125 150.597656 69.328125 C 161.40625 69.328125 172.203125 69.328125 183.203125 69.328125 Z M 183.203125 69.328125 " fill-opacity="1" fill-rule="nonzero"/><path fill="#093451" d="M 206.253906 101.652344 C 206.253906 107.292969 206.253906 112.722656 206.253906 118.28125 C 202.78125 118.28125 199.40625 118.28125 195.894531 118.28125 C 195.894531 102.050781 195.894531 85.785156 195.894531 69.425781 C 199.3125 69.425781 202.6875 69.425781 206.253906 69.425781 C 206.253906 80.148438 206.253906 90.796875 206.253906 101.652344 Z M 206.253906 101.652344 " fill-opacity="1" fill-rule="nonzero"/><path fill="#fefefe" d="M 29.0625 109.191406 C 26.289062 109.191406 23.722656 109.191406 21.070312 109.191406 C 21.070312 105.402344 21.070312 101.796875 21.070312 97.886719 C 23.789062 97.886719 26.546875 97.882812 29.304688 97.886719 C 31.117188 97.886719 32.933594 97.847656 34.746094 97.914062 C 38.253906 98.035156 40.675781 100.378906 40.710938 103.601562 C 40.746094 106.832031 38.394531 109.039062 34.714844 109.167969 C 32.902344 109.230469 31.085938 109.1875 29.0625 109.191406 Z M 29.0625 109.191406 " fill-opacity="1" fill-rule="nonzero"/><path fill="#f8f9fa" d="M 39.011719 80.914062 C 40.746094 85.253906 39 88.484375 34.578125 88.746094 C 30.136719 89.011719 25.671875 88.804688 21.035156 88.804688 C 21.035156 85.457031 21.035156 82.097656 21.035156 78.632812 C 25.78125 78.632812 30.511719 78.484375 35.21875 78.730469 C 36.488281 78.796875 37.695312 80.0625 39.011719 80.914062 Z M 39.011719 80.914062 " fill-opacity="1" fill-rule="nonzero"/><path fill="#fbfcfc" d="M 337.003906 100.890625 C 335.835938 100.890625 334.867188 100.890625 333.636719 100.890625 C 336.179688 93.839844 338.660156 86.976562 341.261719 79.769531 C 343.867188 86.980469 346.328125 93.796875 348.890625 100.890625 C 344.808594 100.890625 341.007812 100.890625 337.003906 100.890625 Z M 337.003906 100.890625 " fill-opacity="1" fill-rule="nonzero"/></svg>