<svg xmlns="http://www.w3.org/2000/svg" xmlns:xlink="http://www.w3.org/1999/xlink" width="500" zoomAndPan="magnify" viewBox="0 0 375 374.999991" height="500" preserveAspectRatio="xMidYMid meet" version="1.0"><defs><clipPath id="3ca64e0801"><path d="M 0 137.765625 L 375 137.765625 L 375 237.515625 L 0 237.515625 Z M 0 137.765625 " clip-rule="nonzero"/></clipPath></defs><g clip-path="url(#3ca64e0801)"><path fill="#ffffff" d="M 238.644531 292.695312 C 158.144531 292.695312 77.851562 292.695312 -2.4375 292.695312 C -2.4375 222.695312 -2.4375 152.695312 -2.4375 82.695312 C 123.5625 82.695312 249.5625 82.695312 375.5625 82.695312 C 375.5625 152.695312 375.5625 222.695312 375.5625 292.695312 C 329.992188 292.695312 284.421875 292.695312 238.644531 292.695312 M 9.8125 193.785156 C 9.8125 199.917969 9.8125 206.054688 9.8125 212.402344 C 10.746094 212.402344 11.425781 212.402344 12.105469 212.402344 C 20.015625 212.402344 27.921875 212.421875 35.832031 212.386719 C 37.292969 212.378906 38.773438 212.265625 40.207031 211.992188 C 48.4375 210.425781 52.851562 203.132812 50.355469 195.171875 C 49.082031 191.097656 46.285156 188.414062 42.027344 187.074219 C 49.652344 184.109375 51.070312 176.847656 49.054688 171.519531 C 46.933594 165.921875 42.460938 163.46875 36.792969 163.367188 C 26.511719 163.179688 16.222656 163.300781 5.9375 163.300781 C 5.839844 163.300781 5.746094 163.441406 5.523438 163.613281 C 6.273438 164.589844 6.949219 165.640625 7.792969 166.527344 C 9.378906 168.1875 9.941406 170.058594 9.894531 172.375 C 9.757812 179.367188 9.824219 186.367188 9.8125 193.785156 M 129.542969 188.210938 C 124.375 181.171875 119.074219 174.226562 114.109375 167.046875 C 112.117188 164.167969 110.015625 162.714844 106.429688 163.195312 C 103.886719 163.535156 101.261719 163.261719 98.671875 163.261719 C 97.746094 163.261719 96.824219 163.261719 95.519531 163.261719 C 96.730469 164.808594 97.539062 166.039062 98.539062 167.082031 C 100.054688 168.65625 100.445312 170.4375 100.429688 172.585938 C 100.34375 185.113281 100.386719 197.640625 100.386719 210.167969 C 100.386719 210.902344 100.386719 211.640625 100.386719 212.316406 C 104.046875 212.316406 107.429688 212.316406 110.996094 212.316406 C 110.996094 201.726562 110.996094 191.292969 110.996094 180.59375 C 111.347656 180.980469 111.488281 181.113281 111.601562 181.269531 C 118.871094 191.191406 126.128906 201.117188 133.417969 211.019531 C 133.832031 211.585938 134.507812 212.316406 135.089844 212.339844 C 138.136719 212.472656 141.195312 212.402344 144.28125 212.402344 C 144.28125 195.894531 144.28125 179.640625 144.28125 163.335938 C 140.78125 163.335938 137.4375 163.335938 133.8125 163.335938 C 133.8125 173.398438 133.8125 183.390625 133.8125 193.898438 C 132.21875 191.765625 130.976562 190.105469 129.542969 188.210938 M 217.863281 163.261719 C 216.152344 163.261719 214.445312 163.261719 212.402344 163.261719 C 213.535156 164.722656 214.335938 165.945312 215.324219 166.988281 C 216.855469 168.613281 217.296875 170.425781 217.277344 172.664062 C 217.164062 185.1875 217.222656 197.71875 217.222656 210.246094 C 217.222656 210.976562 217.222656 211.710938 217.222656 212.382812 C 220.875 212.382812 224.214844 212.382812 227.765625 212.382812 C 227.765625 201.792969 227.765625 191.289062 227.765625 180.402344 C 228.324219 181.113281 228.625 181.472656 228.902344 181.851562 C 236.054688 191.597656 243.199219 201.351562 250.371094 211.085938 C 250.753906 211.601562 251.335938 212.320312 251.847656 212.339844 C 254.964844 212.457031 258.089844 212.398438 261.183594 212.398438 C 261.183594 195.867188 261.183594 179.597656 261.183594 163.339844 C 257.703125 163.339844 254.363281 163.339844 250.847656 163.339844 C 250.847656 173.449219 250.847656 183.484375 250.847656 194.0625 C 250.046875 193.003906 249.554688 192.371094 249.078125 191.726562 C 242.429688 182.738281 235.769531 173.757812 229.160156 164.742188 C 228.386719 163.6875 227.628906 163.160156 226.257812 163.226562 C 223.601562 163.355469 220.9375 163.261719 217.863281 163.261719 M 355.839844 182.804688 C 353.511719 176.757812 351.152344 170.71875 348.882812 164.648438 C 348.464844 163.53125 347.898438 163.222656 346.742188 163.234375 C 341.078125 163.296875 335.410156 163.257812 329.742188 163.269531 C 329.308594 163.273438 328.878906 163.398438 328.257812 163.496094 C 329.617188 165.230469 330.914062 166.707031 331.980469 168.328125 C 332.382812 168.945312 332.589844 170.027344 332.339844 170.691406 C 328.527344 180.804688 324.625 190.882812 320.746094 200.972656 C 319.292969 204.753906 317.851562 208.535156 316.34375 212.476562 C 320.027344 212.476562 323.382812 212.429688 326.738281 212.503906 C 327.847656 212.527344 328.34375 212.136719 328.679688 211.113281 C 329.332031 209.125 330.058594 207.15625 330.894531 205.238281 C 331.101562 204.757812 331.835938 204.199219 332.332031 204.195312 C 338.976562 204.125 345.621094 204.148438 352.375 204.148438 C 353.414062 206.914062 354.4375 209.648438 355.441406 212.328125 C 359.375 212.328125 363.226562 212.328125 367.277344 212.328125 C 363.457031 202.457031 359.710938 192.78125 355.839844 182.804688 M 310.203125 206.550781 C 312.503906 204.949219 313.824219 203.03125 313.550781 199.9375 C 313.230469 196.257812 313.476562 192.527344 313.476562 188.820312 C 313.476562 187.664062 313.476562 186.507812 313.476562 185.386719 C 305.933594 185.386719 298.71875 185.386719 291.203125 185.386719 C 292.820312 187.414062 294.398438 189.109375 295.644531 191.019531 C 297.148438 193.320312 298.941406 194.648438 301.808594 194.089844 C 302.375 193.980469 302.996094 194.15625 303.667969 194.207031 C 303.667969 195.882812 303.753906 197.355469 303.628906 198.8125 C 303.578125 199.414062 303.222656 200.175781 302.753906 200.519531 C 299.332031 203.035156 295.402344 204.003906 291.265625 203.40625 C 283.738281 202.316406 279.046875 196.738281 278.605469 188.75 C 278.226562 181.960938 281.746094 175.800781 287.386719 173.382812 C 293.792969 170.636719 299.757812 172.316406 304.898438 178.390625 C 307.589844 176.878906 310.296875 175.359375 313.015625 173.832031 C 305.007812 161.324219 289.179688 160.699219 278.761719 167.402344 C 269.804688 173.164062 266.875 181.824219 268.253906 192.101562 C 269.128906 198.601562 272.3125 203.914062 277.679688 207.59375 C 287.433594 214.285156 300.820312 214.042969 310.203125 206.550781 M 88.0625 163.261719 C 77.867188 163.261719 67.667969 163.261719 57.402344 163.261719 C 57.402344 179.730469 57.402344 195.992188 57.402344 212.308594 C 68.980469 212.308594 80.425781 212.308594 91.976562 212.308594 C 91.976562 209.246094 91.976562 206.277344 91.976562 203.066406 C 83.875 203.066406 75.875 203.066406 67.910156 203.066406 C 67.910156 199.21875 67.910156 195.613281 67.910156 191.867188 C 74.597656 191.867188 81.152344 191.867188 87.742188 191.867188 C 87.742188 188.761719 87.742188 185.808594 87.742188 182.671875 C 81.058594 182.671875 74.511719 182.671875 67.902344 182.671875 C 67.902344 179.171875 67.902344 175.851562 67.902344 172.28125 C 76.023438 172.28125 84.023438 172.28125 91.984375 172.28125 C 91.984375 169.125 91.984375 166.230469 91.984375 163.261719 C 90.714844 163.261719 89.597656 163.261719 88.0625 163.261719 M 182.984375 163.261719 C 172.160156 163.261719 161.335938 163.261719 150.496094 163.261719 C 150.496094 166.394531 150.496094 169.292969 150.496094 172.457031 C 158.109375 172.457031 165.597656 172.457031 173.402344 172.457031 C 172.621094 173.578125 172.09375 174.386719 171.523438 175.160156 C 164.804688 184.269531 158.074219 193.371094 151.363281 202.488281 C 150.960938 203.03125 150.441406 203.671875 150.417969 204.285156 C 150.3125 206.921875 150.375 209.566406 150.375 212.285156 C 162.917969 212.285156 175.265625 212.285156 187.660156 212.285156 C 187.660156 209.195312 187.660156 206.230469 187.660156 203.089844 C 179.804688 203.089844 172.078125 203.089844 164.027344 203.089844 C 164.644531 202.214844 165.058594 201.597656 165.5 201 C 172.460938 191.632812 179.425781 182.269531 186.375 172.894531 C 186.777344 172.347656 187.296875 171.714844 187.324219 171.101562 C 187.429688 168.539062 187.367188 165.96875 187.367188 163.261719 C 185.898438 163.261719 184.648438 163.261719 182.984375 163.261719 M 206.300781 195.464844 C 206.300781 184.789062 206.300781 174.109375 206.300781 163.359375 C 202.726562 163.359375 199.34375 163.359375 195.914062 163.359375 C 195.914062 179.765625 195.914062 196.070312 195.914062 212.347656 C 199.4375 212.347656 202.824219 212.347656 206.300781 212.347656 C 206.300781 206.773438 206.300781 201.328125 206.300781 195.464844 Z M 206.300781 195.464844 " fill-opacity="1" fill-rule="nonzero"/></g><path fill="#0c3653" d="M 9.8125 193.574219 C 9.824219 186.367188 9.757812 179.367188 9.894531 172.375 C 9.941406 170.058594 9.378906 168.1875 7.792969 166.527344 C 6.949219 165.640625 6.273438 164.589844 5.523438 163.613281 C 5.746094 163.441406 5.839844 163.300781 5.9375 163.300781 C 16.222656 163.300781 26.511719 163.179688 36.792969 163.367188 C 42.460938 163.46875 46.933594 165.921875 49.054688 171.519531 C 51.070312 176.847656 49.652344 184.109375 42.027344 187.074219 C 46.285156 188.414062 49.082031 191.097656 50.355469 195.171875 C 52.851562 203.132812 48.4375 210.425781 40.207031 211.992188 C 38.773438 212.265625 37.292969 212.378906 35.832031 212.386719 C 27.921875 212.421875 20.015625 212.402344 12.105469 212.402344 C 11.425781 212.402344 10.746094 212.402344 9.8125 212.402344 C 9.8125 206.054688 9.8125 199.917969 9.8125 193.574219 M 28.851562 203.234375 C 30.671875 203.226562 32.492188 203.269531 34.308594 203.207031 C 38 203.082031 40.351562 200.867188 40.320312 197.628906 C 40.285156 194.398438 37.855469 192.046875 34.339844 191.921875 C 32.523438 191.859375 30.703125 191.898438 28.882812 191.898438 C 26.117188 191.894531 23.351562 191.894531 20.625 191.894531 C 20.625 195.816406 20.625 199.433594 20.625 203.234375 C 23.285156 203.234375 25.859375 203.234375 28.851562 203.234375 M 38.535156 174.742188 C 37.296875 174.023438 36.085938 172.757812 34.816406 172.6875 C 30.09375 172.441406 25.347656 172.589844 20.589844 172.589844 C 20.589844 176.066406 20.589844 179.4375 20.589844 182.792969 C 25.242188 182.792969 29.71875 183 34.167969 182.734375 C 38.605469 182.46875 40.355469 179.230469 38.535156 174.742188 Z M 38.535156 174.742188 " fill-opacity="1" fill-rule="nonzero"/><path fill="#0c3653" d="M 129.640625 188.328125 C 130.976562 190.105469 132.21875 191.765625 133.8125 193.898438 C 133.8125 183.390625 133.8125 173.398438 133.8125 163.335938 C 137.4375 163.335938 140.78125 163.335938 144.28125 163.335938 C 144.28125 179.640625 144.28125 195.894531 144.28125 212.402344 C 141.195312 212.402344 138.136719 212.472656 135.089844 212.339844 C 134.507812 212.316406 133.832031 211.585938 133.417969 211.019531 C 126.128906 201.117188 118.871094 191.191406 111.601562 181.269531 C 111.488281 181.113281 111.347656 180.980469 110.996094 180.59375 C 110.996094 191.292969 110.996094 201.726562 110.996094 212.316406 C 107.429688 212.316406 104.046875 212.316406 100.386719 212.316406 C 100.386719 211.640625 100.386719 210.902344 100.386719 210.167969 C 100.386719 197.640625 100.34375 185.113281 100.429688 172.585938 C 100.445312 170.4375 100.054688 168.65625 98.539062 167.082031 C 97.539062 166.039062 96.730469 164.808594 95.519531 163.261719 C 96.824219 163.261719 97.746094 163.261719 98.671875 163.261719 C 101.261719 163.261719 103.886719 163.535156 106.429688 163.195312 C 110.015625 162.714844 112.117188 164.167969 114.109375 167.046875 C 119.074219 174.226562 124.375 181.171875 129.640625 188.328125 Z M 129.640625 188.328125 " fill-opacity="1" fill-rule="nonzero"/><path fill="#0a3552" d="M 218.070312 163.261719 C 220.9375 163.261719 223.601562 163.355469 226.257812 163.226562 C 227.628906 163.160156 228.386719 163.6875 229.160156 164.742188 C 235.769531 173.757812 242.429688 182.738281 249.078125 191.726562 C 249.554688 192.371094 250.046875 193.003906 250.847656 194.0625 C 250.847656 183.484375 250.847656 173.449219 250.847656 163.339844 C 254.363281 163.339844 257.703125 163.339844 261.183594 163.339844 C 261.183594 179.597656 261.183594 195.867188 261.183594 212.398438 C 258.089844 212.398438 254.964844 212.457031 251.847656 212.339844 C 251.335938 212.320312 250.753906 211.601562 250.371094 211.085938 C 243.199219 201.351562 236.054688 191.597656 228.902344 181.851562 C 228.625 181.472656 228.324219 181.113281 227.765625 180.402344 C 227.765625 191.289062 227.765625 201.792969 227.765625 212.382812 C 224.214844 212.382812 220.875 212.382812 217.222656 212.382812 C 217.222656 211.710938 217.222656 210.976562 217.222656 210.246094 C 217.222656 197.71875 217.164062 185.1875 217.277344 172.664062 C 217.296875 170.425781 216.855469 168.613281 215.324219 166.988281 C 214.335938 165.945312 213.535156 164.722656 212.402344 163.261719 C 214.445312 163.261719 216.152344 163.261719 218.070312 163.261719 Z M 218.070312 163.261719 " fill-opacity="1" fill-rule="nonzero"/><path fill="#0b3552" d="M 355.902344 182.957031 C 359.710938 192.78125 363.457031 202.457031 367.277344 212.328125 C 363.226562 212.328125 359.375 212.328125 355.441406 212.328125 C 354.4375 209.648438 353.414062 206.914062 352.375 204.148438 C 345.621094 204.148438 338.976562 204.125 332.332031 204.195312 C 331.835938 204.199219 331.101562 204.757812 330.894531 205.238281 C 330.058594 207.15625 329.332031 209.125 328.679688 211.113281 C 328.34375 212.136719 327.847656 212.527344 326.738281 212.503906 C 323.382812 212.429688 320.027344 212.476562 316.34375 212.476562 C 317.851562 208.535156 319.292969 204.753906 320.746094 200.972656 C 324.625 190.882812 328.527344 180.804688 332.339844 170.691406 C 332.589844 170.027344 332.382812 168.945312 331.980469 168.328125 C 330.914062 166.707031 329.617188 165.230469 328.257812 163.496094 C 328.878906 163.398438 329.308594 163.273438 329.742188 163.269531 C 335.410156 163.257812 341.078125 163.296875 346.742188 163.234375 C 347.898438 163.222656 348.464844 163.53125 348.882812 164.648438 C 351.152344 170.71875 353.511719 176.757812 355.902344 182.957031 M 337.601562 194.910156 C 341.414062 194.910156 345.230469 194.910156 349.320312 194.910156 C 346.75 187.800781 344.28125 180.964844 341.671875 173.730469 C 339.0625 180.957031 336.578125 187.839844 334.027344 194.910156 C 335.257812 194.910156 336.230469 194.910156 337.601562 194.910156 Z M 337.601562 194.910156 " fill-opacity="1" fill-rule="nonzero"/><path fill="#0b3653" d="M 310.085938 206.644531 C 300.820312 214.042969 287.433594 214.285156 277.679688 207.59375 C 272.3125 203.914062 269.128906 198.601562 268.253906 192.101562 C 266.875 181.824219 269.804688 173.164062 278.761719 167.402344 C 289.179688 160.699219 305.007812 161.324219 313.015625 173.832031 C 310.296875 175.359375 307.589844 176.878906 304.898438 178.390625 C 299.757812 172.316406 293.792969 170.636719 287.386719 173.382812 C 281.746094 175.800781 278.226562 181.960938 278.605469 188.75 C 279.046875 196.738281 283.738281 202.316406 291.265625 203.40625 C 295.402344 204.003906 299.332031 203.035156 302.753906 200.519531 C 303.222656 200.175781 303.578125 199.414062 303.628906 198.8125 C 303.753906 197.355469 303.667969 195.882812 303.667969 194.207031 C 302.996094 194.15625 302.375 193.980469 301.808594 194.089844 C 298.941406 194.648438 297.148438 193.320312 295.644531 191.019531 C 294.398438 189.109375 292.820312 187.414062 291.203125 185.386719 C 298.71875 185.386719 305.933594 185.386719 313.476562 185.386719 C 313.476562 186.507812 313.476562 187.664062 313.476562 188.820312 C 313.476562 192.527344 313.230469 196.257812 313.550781 199.9375 C 313.824219 203.03125 312.503906 204.949219 310.085938 206.644531 Z M 310.085938 206.644531 " fill-opacity="1" fill-rule="nonzero"/><path fill="#0b3653" d="M 88.273438 163.261719 C 89.597656 163.261719 90.714844 163.261719 91.984375 163.261719 C 91.984375 166.230469 91.984375 169.125 91.984375 172.28125 C 84.023438 172.28125 76.023438 172.28125 67.902344 172.28125 C 67.902344 175.851562 67.902344 179.171875 67.902344 182.671875 C 74.511719 182.671875 81.058594 182.671875 87.742188 182.671875 C 87.742188 185.808594 87.742188 188.761719 87.742188 191.867188 C 81.152344 191.867188 74.597656 191.867188 67.910156 191.867188 C 67.910156 195.613281 67.910156 199.21875 67.910156 203.066406 C 75.875 203.066406 83.875 203.066406 91.976562 203.066406 C 91.976562 206.277344 91.976562 209.246094 91.976562 212.308594 C 80.425781 212.308594 68.980469 212.308594 57.402344 212.308594 C 57.402344 195.992188 57.402344 179.730469 57.402344 163.261719 C 67.667969 163.261719 77.867188 163.261719 88.273438 163.261719 Z M 88.273438 163.261719 " fill-opacity="1" fill-rule="nonzero"/><path fill="#0b3652" d="M 183.191406 163.261719 C 184.648438 163.261719 185.898438 163.261719 187.367188 163.261719 C 187.367188 165.96875 187.429688 168.539062 187.324219 171.101562 C 187.296875 171.714844 186.777344 172.347656 186.375 172.894531 C 179.425781 182.269531 172.460938 191.632812 165.5 201 C 165.058594 201.597656 164.644531 202.214844 164.027344 203.089844 C 172.078125 203.089844 179.804688 203.089844 187.660156 203.089844 C 187.660156 206.230469 187.660156 209.195312 187.660156 212.285156 C 175.265625 212.285156 162.917969 212.285156 150.375 212.285156 C 150.375 209.566406 150.3125 206.921875 150.417969 204.285156 C 150.441406 203.671875 150.960938 203.03125 151.363281 202.488281 C 158.074219 193.371094 164.804688 184.269531 171.523438 175.160156 C 172.09375 174.386719 172.621094 173.578125 173.402344 172.457031 C 165.597656 172.457031 158.109375 172.457031 150.496094 172.457031 C 150.496094 169.292969 150.496094 166.394531 150.496094 163.261719 C 161.335938 163.261719 172.160156 163.261719 183.191406 163.261719 Z M 183.191406 163.261719 " fill-opacity="1" fill-rule="nonzero"/><path fill="#093451" d="M 206.300781 195.675781 C 206.300781 201.328125 206.300781 206.773438 206.300781 212.347656 C 202.824219 212.347656 199.4375 212.347656 195.914062 212.347656 C 195.914062 196.070312 195.914062 179.765625 195.914062 163.359375 C 199.34375 163.359375 202.726562 163.359375 206.300781 163.359375 C 206.300781 174.109375 206.300781 184.789062 206.300781 195.675781 Z M 206.300781 195.675781 " fill-opacity="1" fill-rule="nonzero"/><path fill="#fefefe" d="M 28.640625 203.234375 C 25.859375 203.234375 23.285156 203.234375 20.625 203.234375 C 20.625 199.433594 20.625 195.816406 20.625 191.894531 C 23.351562 191.894531 26.117188 191.894531 28.882812 191.898438 C 30.703125 191.898438 32.523438 191.859375 34.339844 191.921875 C 37.855469 192.046875 40.285156 194.398438 40.320312 197.628906 C 40.351562 200.867188 38 203.082031 34.308594 203.207031 C 32.492188 203.269531 30.671875 203.226562 28.640625 203.234375 Z M 28.640625 203.234375 " fill-opacity="1" fill-rule="nonzero"/><path fill="#f8f9fa" d="M 38.613281 174.878906 C 40.355469 179.230469 38.605469 182.46875 34.167969 182.734375 C 29.71875 183 25.242188 182.792969 20.589844 182.792969 C 20.589844 179.4375 20.589844 176.066406 20.589844 172.589844 C 25.347656 172.589844 30.09375 172.441406 34.816406 172.6875 C 36.085938 172.757812 37.296875 174.023438 38.613281 174.878906 Z M 38.613281 174.878906 " fill-opacity="1" fill-rule="nonzero"/><path fill="#fbfcfc" d="M 337.402344 194.910156 C 336.230469 194.910156 335.257812 194.910156 334.027344 194.910156 C 336.578125 187.839844 339.0625 180.957031 341.671875 173.730469 C 344.28125 180.964844 346.75 187.800781 349.320312 194.910156 C 345.230469 194.910156 341.414062 194.910156 337.402344 194.910156 Z M 337.402344 194.910156 " fill-opacity="1" fill-rule="nonzero"/></svg>