<svg version="1.1" id="Layer_1" xmlns="http://www.w3.org/2000/svg" xmlns:xlink="http://www.w3.org/1999/xlink" x="0px" y="0px"
	 width="100%" viewBox="0 0 900 500" enable-background="new 0 0 900 500" xml:space="preserve">
<path fill="#FFFFFF" opacity="1.000000" stroke="none" 
	d="
M575.000000,501.000000 
	C383.333344,501.000000 192.166672,501.000000 1.000000,501.000000 
	C1.000000,334.333344 1.000000,167.666672 1.000000,1.000000 
	C301.000000,1.000000 601.000000,1.000000 901.000000,1.000000 
	C901.000000,167.666672 901.000000,334.333344 901.000000,501.000000 
	C792.500000,501.000000 684.000000,501.000000 575.000000,501.000000 
M30.168583,265.499969 
	C30.168583,280.106476 30.168583,294.712952 30.168583,309.831390 
	C32.386734,309.831390 34.008041,309.831390 35.629349,309.831390 
	C54.457535,309.831390 73.285942,309.878113 92.113708,309.789215 
	C95.592361,309.772797 99.123497,309.497894 102.536575,308.848846 
	C122.134087,305.122040 132.640549,287.759796 126.700310,268.800751 
	C123.661308,259.101379 117.007835,252.707657 106.872688,249.516968 
	C125.023064,242.462463 128.399643,225.169220 123.597908,212.486008 
	C118.551003,199.155212 107.899529,193.313980 94.405495,193.072083 
	C69.922913,192.633224 45.427410,192.913940 20.937305,192.918610 
	C20.709480,192.918640 20.481716,193.250992 19.953140,193.662201 
	C21.740162,195.983841 23.345490,198.485825 25.360245,200.597107 
	C29.133284,204.550949 30.470779,209.010696 30.362078,214.519241 
	C30.033413,231.174271 30.196913,247.838989 30.168583,265.499969 
M315.242889,252.227859 
	C302.938416,235.467575 290.309875,218.931412 278.488708,201.836929 
	C273.747772,194.981094 268.749390,191.518845 260.207611,192.665497 
	C254.151657,193.478439 247.898575,192.822998 241.733490,192.822998 
	C239.534058,192.822998 237.334625,192.822998 234.234650,192.822998 
	C237.111740,196.506836 239.035950,199.434723 241.422714,201.918060 
	C245.024582,205.665695 245.958755,209.909470 245.923538,215.027618 
	C245.718231,244.851929 245.822983,274.678375 245.822983,304.504089 
	C245.822983,306.256927 245.822998,308.009735 245.822998,309.624847 
	C254.530960,309.624847 262.585815,309.624847 271.083191,309.624847 
	C271.083191,284.405518 271.083191,259.563507 271.083191,234.096130 
	C271.912384,235.014740 272.253937,235.332260 272.524597,235.701736 
	C289.826691,259.321899 307.105652,282.959076 324.465240,306.536926 
	C325.454071,307.879974 327.060455,309.618347 328.444183,309.678314 
	C335.701233,309.992737 342.979156,309.825348 350.333954,309.825348 
	C350.333954,270.521240 350.333954,231.819687 350.333954,193.003540 
	C342.000183,193.003540 334.035492,193.003540 325.404083,193.003540 
	C325.404083,216.961746 325.404083,240.748596 325.404083,265.773651 
	C321.610168,260.696045 318.654358,256.740143 315.242889,252.227859 
M525.522156,192.828171 
	C521.455688,192.828171 517.389221,192.828171 512.520813,192.828171 
	C515.217224,196.306580 517.128723,199.209854 519.477234,201.701065 
	C523.125244,205.570709 524.172607,209.877609 524.125671,215.206879 
	C523.863037,245.032639 523.999329,274.861908 523.999329,304.690002 
	C523.999329,306.433746 523.999329,308.177490 523.999329,309.784973 
	C532.699646,309.784973 540.649475,309.784973 549.099487,309.784973 
	C549.099487,284.567902 549.099487,259.561127 549.099487,233.639832 
	C550.430237,235.330963 551.146423,236.188278 551.806030,237.087082 
	C568.836670,260.293945 585.848755,283.514435 602.922485,306.689514 
	C603.832214,307.924316 605.221313,309.631287 606.441345,309.677032 
	C613.866333,309.955505 621.306946,309.816010 628.669861,309.816010 
	C628.669861,270.455139 628.669861,231.717743 628.669861,193.012115 
	C620.385681,193.012115 612.433716,193.012115 604.063965,193.012115 
	C604.063965,217.081528 604.063965,240.972672 604.063965,266.162872 
	C602.149048,263.636169 600.982300,262.128815 599.849060,260.596619 
	C584.020325,239.194489 568.157104,217.817673 552.423706,196.345703 
	C550.584045,193.835068 548.776306,192.582184 545.507996,192.739426 
	C539.190430,193.043350 532.847839,192.828171 525.522156,192.828171 
M854.040649,239.356277 
	C848.496948,224.955399 842.880249,210.581818 837.475708,196.128937 
	C836.480164,193.466751 835.129944,192.726776 832.382202,192.757416 
	C818.889771,192.907898 805.394714,192.815247 791.900696,192.846970 
	C790.874329,192.849380 789.848694,193.151260 788.370361,193.385681 
	C791.610107,197.515121 794.690613,201.025711 797.230591,204.891479 
	C798.195007,206.359467 798.683533,208.934174 798.088013,210.514175 
	C789.012390,234.594833 779.716309,258.592346 770.482361,282.613403 
	C767.023010,291.612549 763.591125,300.622223 760.003113,310.002686 
	C768.769714,310.002686 776.764526,309.889587 784.752930,310.066620 
	C787.395569,310.125214 788.577026,309.194092 789.376099,306.753601 
	C790.925171,302.022369 792.657166,297.335449 794.643616,292.773956 
	C795.142578,291.628113 796.885071,290.298096 798.068848,290.285797 
	C813.886780,290.121063 829.706970,290.175598 845.795654,290.175598 
	C848.263062,296.763763 850.698608,303.266754 853.089905,309.651550 
	C862.457153,309.651550 871.630615,309.651550 881.273682,309.651550 
	C872.177124,286.147980 863.260681,263.109802 854.040649,239.356277 
M745.377380,295.894623 
	C750.862000,292.081665 754.003357,287.515106 753.356873,280.148743 
	C752.587830,271.386353 753.175903,262.504852 753.175903,253.674988 
	C753.175903,250.922974 753.175903,248.170975 753.175903,245.506439 
	C735.214722,245.506439 718.042114,245.506439 700.146057,245.506439 
	C703.997253,250.327148 707.747681,254.364517 710.719543,258.910858 
	C714.303040,264.392822 718.565979,267.552979 725.396667,266.228851 
	C726.745422,265.967377 728.226074,266.386566 729.823303,266.505005 
	C729.823303,270.494965 730.024048,274.002960 729.726624,277.468201 
	C729.603882,278.897675 728.765381,280.717682 727.648621,281.537567 
	C719.500732,287.519470 710.141724,289.831940 700.291260,288.405579 
	C682.373718,285.811157 671.202515,272.530701 670.146118,253.510757 
	C669.248169,237.343445 677.629211,222.680939 691.060608,216.921432 
	C706.311218,210.381805 720.511047,214.387604 732.751404,228.845291 
	C739.156067,225.249451 745.605530,221.628448 752.076416,217.995422 
	C733.009583,188.211426 695.323120,186.721710 670.524597,202.680679 
	C649.196899,216.406006 642.216064,237.017044 645.505798,261.490326 
	C647.585999,276.966003 655.168762,289.618744 667.940674,298.376862 
	C691.172058,314.307404 723.043823,313.729523 745.377380,295.894623 
M216.479492,192.823593 
	C192.196762,192.823593 167.914017,192.823593 143.477646,192.823593 
	C143.477646,232.035049 143.477646,270.755554 143.477646,309.600769 
	C171.040710,309.600769 198.294754,309.600769 225.797119,309.600769 
	C225.797119,302.308350 225.797119,295.246216 225.797119,287.602783 
	C206.504074,287.602783 187.459793,287.602783 168.495148,287.602783 
	C168.495148,278.433136 168.495148,269.848541 168.495148,260.929535 
	C184.415527,260.929535 200.020874,260.929535 215.717194,260.929535 
	C215.717194,253.542618 215.717194,246.503296 215.717194,239.041534 
	C199.798691,239.041534 184.210083,239.041534 168.471283,239.041534 
	C168.471283,230.704681 168.471283,222.798584 168.471283,214.295746 
	C187.810547,214.295746 206.863266,214.295746 225.809235,214.295746 
	C225.809235,206.789261 225.809235,199.888321 225.809235,192.823578 
	C222.786728,192.823578 220.130554,192.823578 216.479492,192.823593 
M442.477844,192.825211 
	C416.708984,192.825211 390.940094,192.825211 365.131348,192.825211 
	C365.131348,200.287048 365.131348,207.182388 365.131348,214.714066 
	C383.254852,214.714066 401.080780,214.714066 419.663574,214.714066 
	C417.809875,217.391113 416.554596,219.308395 415.196320,221.149689 
	C399.195221,242.840195 383.169250,264.512421 367.189667,286.218750 
	C366.232574,287.518799 365.000763,289.043213 364.942841,290.504639 
	C364.694092,296.782043 364.836670,303.074921 364.836670,309.543549 
	C394.701263,309.543549 424.097900,309.543549 453.615601,309.543549 
	C453.615601,302.192139 453.615601,295.129700 453.615601,287.651154 
	C434.912201,287.651154 416.517456,287.651154 397.347992,287.651154 
	C398.811005,285.571198 399.797241,284.099915 400.852173,282.679688 
	C417.420654,260.373657 434.006897,238.080826 450.550293,215.756226 
	C451.509583,214.461731 452.752472,212.947464 452.812958,211.491806 
	C453.066589,205.387482 452.920044,199.266510 452.920044,192.825180 
	C449.413879,192.825180 446.440674,192.825180 442.477844,192.825211 
M497.999390,269.500000 
	C497.999390,244.078049 497.999390,218.656097 497.999390,193.058990 
	C489.489288,193.058990 481.432343,193.058990 473.269257,193.058990 
	C473.269257,232.117004 473.269257,270.945496 473.269257,309.693542 
	C481.652679,309.693542 489.717041,309.693542 497.999390,309.693542 
	C497.999390,296.425934 497.999390,283.462982 497.999390,269.500000 
z"/>
<path fill="#0C3653" opacity="1.000000" stroke="none" 
	d="
M30.168591,264.999939 
	C30.196913,247.838989 30.033413,231.174271 30.362078,214.519241 
	C30.470779,209.010696 29.133284,204.550949 25.360245,200.597107 
	C23.345490,198.485825 21.740162,195.983841 19.953140,193.662201 
	C20.481716,193.250992 20.709480,192.918640 20.937305,192.918610 
	C45.427410,192.913940 69.922913,192.633224 94.405495,193.072083 
	C107.899529,193.313980 118.551003,199.155212 123.597908,212.486008 
	C128.399643,225.169220 125.023064,242.462463 106.872688,249.516968 
	C117.007835,252.707657 123.661308,259.101379 126.700310,268.800751 
	C132.640549,287.759796 122.134087,305.122040 102.536575,308.848846 
	C99.123497,309.497894 95.592361,309.772797 92.113708,309.789215 
	C73.285942,309.878113 54.457535,309.831390 35.629349,309.831390 
	C34.008041,309.831390 32.386734,309.831390 30.168583,309.831390 
	C30.168583,294.712952 30.168583,280.106476 30.168591,264.999939 
M75.497437,287.997009 
	C79.828239,287.984436 84.162949,288.084869 88.489037,287.935547 
	C97.275406,287.632324 102.881859,282.361237 102.801781,274.650116 
	C102.721886,266.957001 96.934898,261.364044 88.563705,261.067047 
	C84.237900,260.913574 79.903015,261.008911 75.572220,261.004669 
	C68.988647,260.998260 62.405060,261.002991 55.914337,261.002991 
	C55.914337,270.340515 55.914337,278.950531 55.914337,287.997009 
	C62.245895,287.997009 68.372246,287.997009 75.497437,287.997009 
M98.550575,220.158783 
	C95.602798,218.451492 92.723816,215.430069 89.694962,215.271500 
	C78.451530,214.682907 67.158752,215.036911 55.825371,215.036911 
	C55.825371,223.316193 55.825371,231.336075 55.825371,239.325897 
	C66.899933,239.325897 77.562614,239.818924 88.158203,239.187012 
	C98.718864,238.557190 102.887367,230.843521 98.550575,220.158783 
z"/>
<path fill="#0C3653" opacity="1.000000" stroke="none" 
	d="
M315.470703,252.506042 
	C318.654358,256.740143 321.610168,260.696045 325.404083,265.773651 
	C325.404083,240.748596 325.404083,216.961746 325.404083,193.003540 
	C334.035492,193.003540 342.000183,193.003540 350.333954,193.003540 
	C350.333954,231.819687 350.333954,270.521240 350.333954,309.825348 
	C342.979156,309.825348 335.701233,309.992737 328.444183,309.678314 
	C327.060455,309.618347 325.454071,307.879974 324.465240,306.536926 
	C307.105652,282.959076 289.826691,259.321899 272.524597,235.701736 
	C272.253937,235.332260 271.912384,235.014740 271.083191,234.096130 
	C271.083191,259.563507 271.083191,284.405518 271.083191,309.624847 
	C262.585815,309.624847 254.530960,309.624847 245.822998,309.624847 
	C245.822998,308.009735 245.822983,306.256927 245.822983,304.504089 
	C245.822983,274.678375 245.718231,244.851929 245.923538,215.027618 
	C245.958755,209.909470 245.024582,205.665695 241.422714,201.918060 
	C239.035950,199.434723 237.111740,196.506836 234.234650,192.822998 
	C237.334625,192.822998 239.534058,192.822998 241.733490,192.822998 
	C247.898575,192.822998 254.151657,193.478439 260.207611,192.665497 
	C268.749390,191.518845 273.747772,194.981094 278.488708,201.836929 
	C290.309875,218.931412 302.938416,235.467575 315.470703,252.506042 
z"/>
<path fill="#0A3552" opacity="1.000000" stroke="none" 
	d="
M526.018921,192.828171 
	C532.847839,192.828171 539.190430,193.043350 545.507996,192.739426 
	C548.776306,192.582184 550.584045,193.835068 552.423706,196.345703 
	C568.157104,217.817673 584.020325,239.194489 599.849060,260.596619 
	C600.982300,262.128815 602.149048,263.636169 604.063965,266.162872 
	C604.063965,240.972672 604.063965,217.081528 604.063965,193.012115 
	C612.433716,193.012115 620.385681,193.012115 628.669861,193.012115 
	C628.669861,231.717743 628.669861,270.455139 628.669861,309.816010 
	C621.306946,309.816010 613.866333,309.955505 606.441345,309.677032 
	C605.221313,309.631287 603.832214,307.924316 602.922485,306.689514 
	C585.848755,283.514435 568.836670,260.293945 551.806030,237.087082 
	C551.146423,236.188278 550.430237,235.330963 549.099487,233.639832 
	C549.099487,259.561127 549.099487,284.567902 549.099487,309.784973 
	C540.649475,309.784973 532.699646,309.784973 523.999329,309.784973 
	C523.999329,308.177490 523.999329,306.433746 523.999329,304.690002 
	C523.999329,274.861908 523.863037,245.032639 524.125671,215.206879 
	C524.172607,209.877609 523.125244,205.570709 519.477234,201.701065 
	C517.128723,199.209854 515.217224,196.306580 512.520813,192.828171 
	C517.389221,192.828171 521.455688,192.828171 526.018921,192.828171 
z"/>
<path fill="#0B3552" opacity="1.000000" stroke="none" 
	d="
M854.192505,239.713928 
	C863.260681,263.109802 872.177124,286.147980 881.273682,309.651550 
	C871.630615,309.651550 862.457153,309.651550 853.089905,309.651550 
	C850.698608,303.266754 848.263062,296.763763 845.795654,290.175598 
	C829.706970,290.175598 813.886780,290.121063 798.068848,290.285797 
	C796.885071,290.298096 795.142578,291.628113 794.643616,292.773956 
	C792.657166,297.335449 790.925171,302.022369 789.376099,306.753601 
	C788.577026,309.194092 787.395569,310.125214 784.752930,310.066620 
	C776.764526,309.889587 768.769714,310.002686 760.003113,310.002686 
	C763.591125,300.622223 767.023010,291.612549 770.482361,282.613403 
	C779.716309,258.592346 789.012390,234.594833 798.088013,210.514175 
	C798.683533,208.934174 798.195007,206.359467 797.230591,204.891479 
	C794.690613,201.025711 791.610107,197.515121 788.370361,193.385681 
	C789.848694,193.151260 790.874329,192.849380 791.900696,192.846970 
	C805.394714,192.815247 818.889771,192.907898 832.382202,192.757416 
	C835.129944,192.726776 836.480164,193.466751 837.475708,196.128937 
	C842.880249,210.581818 848.496948,224.955399 854.192505,239.713928 
M810.617371,268.180420 
	C819.698059,268.180420 828.778687,268.180420 838.516785,268.180420 
	C832.401001,251.246765 826.523071,234.971649 820.304871,217.754272 
	C814.095093,234.958130 808.178955,251.348511 802.103394,268.180450 
	C805.037292,268.180450 807.350281,268.180450 810.617371,268.180420 
z"/>
<path fill="#0B3653" opacity="1.000000" stroke="none" 
	d="
M745.100220,296.120178 
	C723.043823,313.729523 691.172058,314.307404 667.940674,298.376862 
	C655.168762,289.618744 647.585999,276.966003 645.505798,261.490326 
	C642.216064,237.017044 649.196899,216.406006 670.524597,202.680679 
	C695.323120,186.721710 733.009583,188.211426 752.076416,217.995422 
	C745.605530,221.628448 739.156067,225.249451 732.751404,228.845291 
	C720.511047,214.387604 706.311218,210.381805 691.060608,216.921432 
	C677.629211,222.680939 669.248169,237.343445 670.146118,253.510757 
	C671.202515,272.530701 682.373718,285.811157 700.291260,288.405579 
	C710.141724,289.831940 719.500732,287.519470 727.648621,281.537567 
	C728.765381,280.717682 729.603882,278.897675 729.726624,277.468201 
	C730.024048,274.002960 729.823303,270.494965 729.823303,266.505005 
	C728.226074,266.386566 726.745422,265.967377 725.396667,266.228851 
	C718.565979,267.552979 714.303040,264.392822 710.719543,258.910858 
	C707.747681,254.364517 703.997253,250.327148 700.146057,245.506439 
	C718.042114,245.506439 735.214722,245.506439 753.175903,245.506439 
	C753.175903,248.170975 753.175903,250.922974 753.175903,253.674988 
	C753.175903,262.504852 752.587830,271.386353 753.356873,280.148743 
	C754.003357,287.515106 750.862000,292.081665 745.100220,296.120178 
z"/>
<path fill="#0B3653" opacity="1.000000" stroke="none" 
	d="
M216.976929,192.823578 
	C220.130554,192.823578 222.786728,192.823578 225.809235,192.823578 
	C225.809235,199.888321 225.809235,206.789261 225.809235,214.295746 
	C206.863266,214.295746 187.810547,214.295746 168.471283,214.295746 
	C168.471283,222.798584 168.471283,230.704681 168.471283,239.041534 
	C184.210083,239.041534 199.798691,239.041534 215.717194,239.041534 
	C215.717194,246.503296 215.717194,253.542618 215.717194,260.929535 
	C200.020874,260.929535 184.415527,260.929535 168.495148,260.929535 
	C168.495148,269.848541 168.495148,278.433136 168.495148,287.602783 
	C187.459793,287.602783 206.504074,287.602783 225.797119,287.602783 
	C225.797119,295.246216 225.797119,302.308350 225.797119,309.600769 
	C198.294754,309.600769 171.040710,309.600769 143.477646,309.600769 
	C143.477646,270.755554 143.477646,232.035049 143.477646,192.823593 
	C167.914017,192.823593 192.196762,192.823593 216.976929,192.823578 
z"/>
<path fill="#0B3652" opacity="1.000000" stroke="none" 
	d="
M442.972656,192.825195 
	C446.440674,192.825180 449.413879,192.825180 452.920044,192.825180 
	C452.920044,199.266510 453.066589,205.387482 452.812958,211.491806 
	C452.752472,212.947464 451.509583,214.461731 450.550293,215.756226 
	C434.006897,238.080826 417.420654,260.373657 400.852173,282.679688 
	C399.797241,284.099915 398.811005,285.571198 397.347992,287.651154 
	C416.517456,287.651154 434.912201,287.651154 453.615601,287.651154 
	C453.615601,295.129700 453.615601,302.192139 453.615601,309.543549 
	C424.097900,309.543549 394.701263,309.543549 364.836670,309.543549 
	C364.836670,303.074921 364.694092,296.782043 364.942841,290.504639 
	C365.000763,289.043213 366.232574,287.518799 367.189667,286.218750 
	C383.169250,264.512421 399.195221,242.840195 415.196320,221.149689 
	C416.554596,219.308395 417.809875,217.391113 419.663574,214.714066 
	C401.080780,214.714066 383.254852,214.714066 365.131348,214.714066 
	C365.131348,207.182388 365.131348,200.287048 365.131348,192.825211 
	C390.940094,192.825211 416.708984,192.825211 442.972656,192.825195 
z"/>
<path fill="#093451" opacity="1.000000" stroke="none" 
	d="
M497.999390,270.000000 
	C497.999390,283.462982 497.999390,296.425934 497.999390,309.693542 
	C489.717041,309.693542 481.652679,309.693542 473.269257,309.693542 
	C473.269257,270.945496 473.269257,232.117004 473.269257,193.058990 
	C481.432343,193.058990 489.489288,193.058990 497.999390,193.058990 
	C497.999390,218.656097 497.999390,244.078049 497.999390,270.000000 
z"/>
<path fill="#FEFEFE" opacity="1.000000" stroke="none" 
	d="
M74.998016,287.997009 
	C68.372246,287.997009 62.245895,287.997009 55.914337,287.997009 
	C55.914337,278.950531 55.914337,270.340515 55.914337,261.002991 
	C62.405060,261.002991 68.988647,260.998260 75.572220,261.004669 
	C79.903015,261.008911 84.237900,260.913574 88.563705,261.067047 
	C96.934898,261.364044 102.721886,266.957001 102.801781,274.650116 
	C102.881859,282.361237 97.275406,287.632324 88.489037,287.935547 
	C84.162949,288.084869 79.828239,287.984436 74.998016,287.997009 
z"/>
<path fill="#F8F9FA" opacity="1.000000" stroke="none" 
	d="
M98.740982,220.486465 
	C102.887367,230.843521 98.718864,238.557190 88.158203,239.187012 
	C77.562614,239.818924 66.899933,239.325897 55.825371,239.325897 
	C55.825371,231.336075 55.825371,223.316193 55.825371,215.036911 
	C67.158752,215.036911 78.451530,214.682907 89.694962,215.271500 
	C92.723816,215.430069 95.602798,218.451492 98.740982,220.486465 
z"/>
<path fill="#FBFCFC" opacity="1.000000" stroke="none" 
	d="
M810.140259,268.180420 
	C807.350281,268.180450 805.037292,268.180450 802.103394,268.180450 
	C808.178955,251.348511 814.095093,234.958130 820.304871,217.754272 
	C826.523071,234.971649 832.401001,251.246765 838.516785,268.180420 
	C828.778687,268.180420 819.698059,268.180420 810.140259,268.180420 
z"/>
</svg>