<svg xmlns="http://www.w3.org/2000/svg" xmlns:xlink="http://www.w3.org/1999/xlink" width="500" zoomAndPan="magnify" viewBox="0 0 375 187.499995" height="250" preserveAspectRatio="xMidYMid meet" version="1.0"><defs><clipPath id="b2dbcd155f"><path d="M 0.5 63.230469 L 374.5 63.230469 L 374.5 123.816406 L 0.5 123.816406 Z M 0.5 63.230469 " clip-rule="nonzero"/></clipPath></defs><g clip-path="url(#b2dbcd155f)"><path fill="#ffffff" d="M 238.507812 197.433594 C 158.222656 197.433594 78.144531 197.433594 -1.933594 197.433594 C -1.933594 127.621094 -1.933594 57.804688 -1.933594 -12.007812 C 123.734375 -12.007812 249.398438 -12.007812 375.0625 -12.007812 C 375.0625 57.804688 375.0625 127.621094 375.0625 197.433594 C 329.613281 197.433594 284.164062 197.433594 238.507812 197.433594 M 10.285156 98.785156 C 10.285156 104.90625 10.285156 111.023438 10.285156 117.355469 C 11.214844 117.355469 11.894531 117.355469 12.574219 117.355469 C 20.460938 117.355469 28.347656 117.375 36.234375 117.339844 C 37.691406 117.332031 39.171875 117.214844 40.601562 116.945312 C 48.808594 115.382812 53.210938 108.109375 50.722656 100.167969 C 49.449219 96.105469 46.660156 93.429688 42.417969 92.09375 C 50.019531 89.136719 51.433594 81.894531 49.421875 76.582031 C 47.308594 70.996094 42.847656 68.550781 37.195312 68.449219 C 26.9375 68.265625 16.675781 68.382812 6.417969 68.382812 C 6.324219 68.382812 6.226562 68.523438 6.007812 68.695312 C 6.753906 69.667969 7.429688 70.714844 8.273438 71.601562 C 9.851562 73.257812 10.414062 75.125 10.367188 77.433594 C 10.230469 84.410156 10.296875 91.390625 10.285156 98.785156 M 129.699219 93.226562 C 124.542969 86.207031 119.253906 79.28125 114.304688 72.121094 C 112.316406 69.246094 110.222656 67.796875 106.644531 68.277344 C 104.109375 68.617188 101.488281 68.34375 98.90625 68.34375 C 97.984375 68.34375 97.0625 68.34375 95.765625 68.34375 C 96.972656 69.886719 97.777344 71.113281 98.777344 72.152344 C 100.285156 73.722656 100.675781 75.5 100.664062 77.644531 C 100.574219 90.136719 100.621094 102.632812 100.621094 115.125 C 100.621094 115.859375 100.621094 116.59375 100.621094 117.269531 C 104.269531 117.269531 107.640625 117.269531 111.199219 117.269531 C 111.199219 106.707031 111.199219 96.300781 111.199219 85.632812 C 111.546875 86.015625 111.691406 86.148438 111.804688 86.304688 C 119.050781 96.199219 126.289062 106.101562 133.5625 115.976562 C 133.976562 116.539062 134.648438 117.265625 135.230469 117.292969 C 138.269531 117.425781 141.316406 117.355469 144.398438 117.355469 C 144.398438 100.890625 144.398438 84.679688 144.398438 68.417969 C 140.90625 68.417969 137.570312 68.417969 133.957031 68.417969 C 133.957031 78.457031 133.957031 88.417969 133.957031 98.902344 C 132.367188 96.773438 131.128906 95.117188 129.699219 93.226562 M 217.78125 68.347656 C 216.078125 68.347656 214.375 68.347656 212.335938 68.347656 C 213.464844 69.804688 214.265625 71.019531 215.25 72.0625 C 216.777344 73.683594 217.214844 75.488281 217.195312 77.71875 C 217.085938 90.214844 217.144531 102.707031 217.144531 115.203125 C 217.144531 115.933594 217.144531 116.664062 217.144531 117.335938 C 220.789062 117.335938 224.117188 117.335938 227.65625 117.335938 C 227.65625 106.773438 227.65625 96.300781 227.65625 85.441406 C 228.214844 86.148438 228.515625 86.507812 228.792969 86.886719 C 235.925781 96.605469 243.050781 106.332031 250.203125 116.039062 C 250.585938 116.558594 251.164062 117.273438 251.675781 117.292969 C 254.789062 117.410156 257.902344 117.351562 260.988281 117.351562 C 260.988281 100.863281 260.988281 84.636719 260.988281 68.421875 C 257.519531 68.421875 254.1875 68.421875 250.679688 68.421875 C 250.679688 78.503906 250.679688 88.511719 250.679688 99.066406 C 249.878906 98.007812 249.390625 97.375 248.914062 96.734375 C 242.285156 87.769531 235.640625 78.8125 229.050781 69.820312 C 228.277344 68.769531 227.523438 68.242188 226.152344 68.308594 C 223.507812 68.4375 220.851562 68.347656 217.78125 68.347656 M 355.390625 87.835938 C 353.070312 81.804688 350.71875 75.78125 348.453125 69.730469 C 348.035156 68.613281 347.46875 68.304688 346.320312 68.316406 C 340.667969 68.378906 335.015625 68.339844 329.363281 68.355469 C 328.933594 68.355469 328.503906 68.480469 327.882812 68.578125 C 329.242188 70.308594 330.53125 71.78125 331.59375 73.398438 C 332 74.015625 332.203125 75.09375 331.953125 75.753906 C 328.152344 85.839844 324.257812 95.894531 320.390625 105.957031 C 318.941406 109.726562 317.503906 113.5 316 117.429688 C 319.671875 117.429688 323.023438 117.378906 326.367188 117.453125 C 327.476562 117.480469 327.96875 117.089844 328.304688 116.066406 C 328.953125 114.085938 329.679688 112.121094 330.511719 110.210938 C 330.71875 109.730469 331.449219 109.175781 331.945312 109.167969 C 338.574219 109.101562 345.199219 109.121094 351.9375 109.121094 C 352.972656 111.882812 353.992188 114.605469 354.992188 117.28125 C 358.917969 117.28125 362.761719 117.28125 366.800781 117.28125 C 362.988281 107.4375 359.253906 97.785156 355.390625 87.835938 M 309.875 111.519531 C 312.171875 109.921875 313.488281 108.007812 313.21875 104.921875 C 312.894531 101.253906 313.140625 97.53125 313.140625 93.832031 C 313.140625 92.679688 313.140625 91.527344 313.140625 90.410156 C 305.617188 90.410156 298.425781 90.410156 290.929688 90.410156 C 292.542969 92.429688 294.113281 94.121094 295.355469 96.027344 C 296.859375 98.324219 298.644531 99.648438 301.503906 99.09375 C 302.070312 98.984375 302.691406 99.15625 303.359375 99.207031 C 303.359375 100.878906 303.445312 102.347656 303.320312 103.800781 C 303.269531 104.398438 302.917969 105.160156 302.449219 105.503906 C 299.035156 108.011719 295.117188 108.980469 290.988281 108.382812 C 283.484375 107.292969 278.804688 101.730469 278.363281 93.765625 C 277.984375 86.992188 281.496094 80.851562 287.121094 78.4375 C 293.511719 75.699219 299.457031 77.378906 304.585938 83.433594 C 307.269531 81.925781 309.96875 80.410156 312.679688 78.886719 C 304.695312 66.414062 288.90625 65.789062 278.519531 72.472656 C 269.585938 78.222656 266.664062 86.855469 268.039062 97.105469 C 268.910156 103.589844 272.089844 108.890625 277.4375 112.558594 C 287.167969 119.230469 300.519531 118.988281 309.875 111.519531 M 88.328125 68.34375 C 78.15625 68.34375 67.984375 68.34375 57.75 68.34375 C 57.75 84.769531 57.75 100.988281 57.75 117.257812 C 69.296875 117.257812 80.710938 117.257812 92.230469 117.257812 C 92.230469 114.203125 92.230469 111.246094 92.230469 108.046875 C 84.148438 108.046875 76.171875 108.046875 68.230469 108.046875 C 68.230469 104.203125 68.230469 100.609375 68.230469 96.871094 C 74.898438 96.871094 81.433594 96.871094 88.007812 96.871094 C 88.007812 93.777344 88.007812 90.828125 88.007812 87.703125 C 81.339844 87.703125 74.8125 87.703125 68.21875 87.703125 C 68.21875 84.210938 68.21875 80.898438 68.21875 77.339844 C 76.320312 77.339844 84.300781 77.339844 92.238281 77.339844 C 92.238281 74.195312 92.238281 71.304688 92.238281 68.34375 C 90.96875 68.34375 89.859375 68.34375 88.328125 68.34375 M 182.996094 68.34375 C 172.203125 68.34375 161.40625 68.34375 150.597656 68.34375 C 150.597656 71.46875 150.597656 74.359375 150.597656 77.515625 C 158.1875 77.515625 165.65625 77.515625 173.4375 77.515625 C 172.664062 78.636719 172.136719 79.4375 171.566406 80.210938 C 164.863281 89.296875 158.152344 98.375 151.457031 107.464844 C 151.058594 108.011719 150.542969 108.648438 150.515625 109.261719 C 150.414062 111.890625 150.472656 114.527344 150.472656 117.234375 C 162.984375 117.234375 175.296875 117.234375 187.660156 117.234375 C 187.660156 114.15625 187.660156 111.199219 187.660156 108.066406 C 179.828125 108.066406 172.121094 108.066406 164.089844 108.066406 C 164.703125 107.195312 165.117188 106.578125 165.558594 105.984375 C 172.5 96.640625 179.445312 87.300781 186.375 77.949219 C 186.777344 77.40625 187.300781 76.773438 187.324219 76.164062 C 187.429688 73.605469 187.371094 71.042969 187.371094 68.34375 C 185.902344 68.34375 184.65625 68.34375 182.996094 68.34375 M 206.253906 100.460938 C 206.253906 89.8125 206.253906 79.164062 206.253906 68.441406 C 202.6875 68.441406 199.3125 68.441406 195.894531 68.441406 C 195.894531 84.804688 195.894531 101.066406 195.894531 117.296875 C 199.40625 117.296875 202.78125 117.296875 206.253906 117.296875 C 206.253906 111.742188 206.253906 106.3125 206.253906 100.460938 Z M 206.253906 100.460938 " fill-opacity="1" fill-rule="nonzero"/></g><path fill="#0c3653" d="M 10.285156 98.578125 C 10.296875 91.390625 10.230469 84.410156 10.367188 77.433594 C 10.414062 75.125 9.851562 73.257812 8.273438 71.601562 C 7.429688 70.714844 6.753906 69.667969 6.007812 68.695312 C 6.226562 68.523438 6.324219 68.382812 6.417969 68.382812 C 16.675781 68.382812 26.9375 68.265625 37.195312 68.449219 C 42.847656 68.550781 47.308594 70.996094 49.421875 76.582031 C 51.433594 81.894531 50.019531 89.136719 42.417969 92.09375 C 46.660156 93.429688 49.449219 96.105469 50.722656 100.167969 C 53.210938 108.109375 48.808594 115.382812 40.601562 116.945312 C 39.171875 117.214844 37.691406 117.332031 36.234375 117.339844 C 28.347656 117.375 20.460938 117.355469 12.574219 117.355469 C 11.894531 117.355469 11.214844 117.355469 10.285156 117.355469 C 10.285156 111.023438 10.285156 104.90625 10.285156 98.578125 M 29.273438 108.210938 C 31.085938 108.203125 32.902344 108.246094 34.714844 108.183594 C 38.394531 108.058594 40.746094 105.851562 40.710938 102.621094 C 40.675781 99.398438 38.253906 97.054688 34.746094 96.929688 C 32.933594 96.867188 31.117188 96.90625 29.304688 96.902344 C 26.546875 96.902344 23.789062 96.902344 21.070312 96.902344 C 21.070312 100.8125 21.070312 104.421875 21.070312 108.210938 C 23.722656 108.210938 26.289062 108.210938 29.273438 108.210938 M 38.929688 79.792969 C 37.695312 79.078125 36.488281 77.8125 35.21875 77.746094 C 30.511719 77.5 25.78125 77.648438 21.035156 77.648438 C 21.035156 81.117188 21.035156 84.476562 21.035156 87.824219 C 25.671875 87.824219 30.136719 88.03125 34.578125 87.765625 C 39 87.5 40.746094 84.269531 38.929688 79.792969 Z M 38.929688 79.792969 " fill-opacity="1" fill-rule="nonzero"/><path fill="#0c3653" d="M 129.792969 93.34375 C 131.128906 95.117188 132.367188 96.773438 133.957031 98.902344 C 133.957031 88.417969 133.957031 78.457031 133.957031 68.417969 C 137.570312 68.417969 140.90625 68.417969 144.398438 68.417969 C 144.398438 84.679688 144.398438 100.890625 144.398438 117.355469 C 141.316406 117.355469 138.269531 117.425781 135.230469 117.292969 C 134.648438 117.265625 133.976562 116.539062 133.5625 115.976562 C 126.289062 106.101562 119.050781 96.199219 111.804688 86.304688 C 111.691406 86.148438 111.546875 86.015625 111.199219 85.632812 C 111.199219 96.300781 111.199219 106.707031 111.199219 117.269531 C 107.640625 117.269531 104.269531 117.269531 100.621094 117.269531 C 100.621094 116.59375 100.621094 115.859375 100.621094 115.125 C 100.621094 102.632812 100.574219 90.136719 100.664062 77.644531 C 100.675781 75.5 100.285156 73.722656 98.777344 72.152344 C 97.777344 71.113281 96.972656 69.886719 95.765625 68.34375 C 97.0625 68.34375 97.984375 68.34375 98.90625 68.34375 C 101.488281 68.34375 104.109375 68.617188 106.644531 68.277344 C 110.222656 67.796875 112.316406 69.246094 114.304688 72.121094 C 119.253906 79.28125 124.542969 86.207031 129.792969 93.34375 Z M 129.792969 93.34375 " fill-opacity="1" fill-rule="nonzero"/><path fill="#0a3552" d="M 217.988281 68.347656 C 220.851562 68.347656 223.507812 68.4375 226.152344 68.308594 C 227.523438 68.242188 228.277344 68.769531 229.050781 69.820312 C 235.640625 78.8125 242.285156 87.769531 248.914062 96.734375 C 249.390625 97.375 249.878906 98.007812 250.679688 99.066406 C 250.679688 88.511719 250.679688 78.503906 250.679688 68.421875 C 254.1875 68.421875 257.519531 68.421875 260.988281 68.421875 C 260.988281 84.636719 260.988281 100.863281 260.988281 117.351562 C 257.902344 117.351562 254.789062 117.410156 251.675781 117.292969 C 251.164062 117.273438 250.585938 116.558594 250.203125 116.039062 C 243.050781 106.332031 235.925781 96.605469 228.792969 86.886719 C 228.515625 86.507812 228.214844 86.148438 227.65625 85.441406 C 227.65625 96.300781 227.65625 106.773438 227.65625 117.335938 C 224.117188 117.335938 220.789062 117.335938 217.144531 117.335938 C 217.144531 116.664062 217.144531 115.933594 217.144531 115.203125 C 217.144531 102.707031 217.085938 90.214844 217.195312 77.71875 C 217.214844 75.488281 216.777344 73.683594 215.25 72.0625 C 214.265625 71.019531 213.464844 69.804688 212.335938 68.347656 C 214.375 68.347656 216.078125 68.347656 217.988281 68.347656 Z M 217.988281 68.347656 " fill-opacity="1" fill-rule="nonzero"/><path fill="#0b3552" d="M 355.457031 87.984375 C 359.253906 97.785156 362.988281 107.4375 366.800781 117.28125 C 362.761719 117.28125 358.917969 117.28125 354.992188 117.28125 C 353.992188 114.605469 352.972656 111.882812 351.9375 109.121094 C 345.199219 109.121094 338.574219 109.101562 331.945312 109.167969 C 331.449219 109.175781 330.71875 109.730469 330.511719 110.210938 C 329.679688 112.121094 328.953125 114.085938 328.304688 116.066406 C 327.96875 117.089844 327.476562 117.480469 326.367188 117.453125 C 323.023438 117.378906 319.671875 117.429688 316 117.429688 C 317.503906 113.5 318.941406 109.726562 320.390625 105.957031 C 324.257812 95.894531 328.152344 85.839844 331.953125 75.753906 C 332.203125 75.09375 332 74.015625 331.59375 73.398438 C 330.53125 71.78125 329.242188 70.308594 327.882812 68.578125 C 328.503906 68.480469 328.933594 68.355469 329.363281 68.355469 C 335.015625 68.339844 340.667969 68.378906 346.320312 68.316406 C 347.46875 68.304688 348.035156 68.613281 348.453125 69.730469 C 350.71875 75.78125 353.070312 81.804688 355.457031 87.984375 M 337.203125 99.910156 C 341.007812 99.910156 344.808594 99.910156 348.890625 99.910156 C 346.328125 92.816406 343.867188 86 341.261719 78.789062 C 338.660156 85.992188 336.179688 92.859375 333.636719 99.910156 C 334.867188 99.910156 335.835938 99.910156 337.203125 99.910156 Z M 337.203125 99.910156 " fill-opacity="1" fill-rule="nonzero"/><path fill="#0b3653" d="M 309.757812 111.613281 C 300.519531 118.988281 287.167969 119.230469 277.4375 112.558594 C 272.089844 108.890625 268.910156 103.589844 268.039062 97.105469 C 266.664062 86.855469 269.585938 78.222656 278.519531 72.472656 C 288.90625 65.789062 304.695312 66.414062 312.679688 78.886719 C 309.96875 80.410156 307.269531 81.925781 304.585938 83.433594 C 299.457031 77.378906 293.511719 75.699219 287.121094 78.4375 C 281.496094 80.851562 277.984375 86.992188 278.363281 93.765625 C 278.804688 101.730469 283.484375 107.292969 290.988281 108.382812 C 295.117188 108.980469 299.035156 108.011719 302.449219 105.503906 C 302.917969 105.160156 303.269531 104.398438 303.320312 103.800781 C 303.445312 102.347656 303.359375 100.878906 303.359375 99.207031 C 302.691406 99.15625 302.070312 98.984375 301.503906 99.09375 C 298.644531 99.648438 296.859375 98.324219 295.355469 96.027344 C 294.113281 94.121094 292.542969 92.429688 290.929688 90.410156 C 298.425781 90.410156 305.617188 90.410156 313.140625 90.410156 C 313.140625 91.527344 313.140625 92.679688 313.140625 93.832031 C 313.140625 97.53125 312.894531 101.253906 313.21875 104.921875 C 313.488281 108.007812 312.171875 109.921875 309.757812 111.613281 Z M 309.757812 111.613281 " fill-opacity="1" fill-rule="nonzero"/><path fill="#0b3653" d="M 88.535156 68.34375 C 89.859375 68.34375 90.96875 68.34375 92.238281 68.34375 C 92.238281 71.304688 92.238281 74.195312 92.238281 77.339844 C 84.300781 77.339844 76.320312 77.339844 68.21875 77.339844 C 68.21875 80.898438 68.21875 84.210938 68.21875 87.703125 C 74.8125 87.703125 81.339844 87.703125 88.007812 87.703125 C 88.007812 90.828125 88.007812 93.777344 88.007812 96.871094 C 81.433594 96.871094 74.898438 96.871094 68.230469 96.871094 C 68.230469 100.609375 68.230469 104.203125 68.230469 108.046875 C 76.171875 108.046875 84.148438 108.046875 92.230469 108.046875 C 92.230469 111.246094 92.230469 114.203125 92.230469 117.257812 C 80.710938 117.257812 69.296875 117.257812 57.75 117.257812 C 57.75 100.988281 57.75 84.769531 57.75 68.34375 C 67.984375 68.34375 78.15625 68.34375 88.535156 68.34375 Z M 88.535156 68.34375 " fill-opacity="1" fill-rule="nonzero"/><path fill="#0b3652" d="M 183.203125 68.34375 C 184.65625 68.34375 185.902344 68.34375 187.371094 68.34375 C 187.371094 71.042969 187.429688 73.605469 187.324219 76.164062 C 187.300781 76.773438 186.777344 77.40625 186.375 77.949219 C 179.445312 87.300781 172.5 96.640625 165.558594 105.984375 C 165.117188 106.578125 164.703125 107.195312 164.089844 108.066406 C 172.121094 108.066406 179.828125 108.066406 187.660156 108.066406 C 187.660156 111.199219 187.660156 114.15625 187.660156 117.234375 C 175.296875 117.234375 162.984375 117.234375 150.472656 117.234375 C 150.472656 114.527344 150.414062 111.890625 150.515625 109.261719 C 150.542969 108.648438 151.058594 108.011719 151.457031 107.464844 C 158.152344 98.375 164.863281 89.296875 171.566406 80.210938 C 172.136719 79.4375 172.664062 78.636719 173.4375 77.515625 C 165.65625 77.515625 158.1875 77.515625 150.597656 77.515625 C 150.597656 74.359375 150.597656 71.46875 150.597656 68.34375 C 161.40625 68.34375 172.203125 68.34375 183.203125 68.34375 Z M 183.203125 68.34375 " fill-opacity="1" fill-rule="nonzero"/><path fill="#093451" d="M 206.253906 100.671875 C 206.253906 106.3125 206.253906 111.742188 206.253906 117.296875 C 202.78125 117.296875 199.40625 117.296875 195.894531 117.296875 C 195.894531 101.066406 195.894531 84.804688 195.894531 68.441406 C 199.3125 68.441406 202.6875 68.441406 206.253906 68.441406 C 206.253906 79.164062 206.253906 89.8125 206.253906 100.671875 Z M 206.253906 100.671875 " fill-opacity="1" fill-rule="nonzero"/><path fill="#fefefe" d="M 29.0625 108.210938 C 26.289062 108.210938 23.722656 108.210938 21.070312 108.210938 C 21.070312 104.421875 21.070312 100.8125 21.070312 96.902344 C 23.789062 96.902344 26.546875 96.902344 29.304688 96.902344 C 31.117188 96.90625 32.933594 96.867188 34.746094 96.929688 C 38.253906 97.054688 40.675781 99.398438 40.710938 102.621094 C 40.746094 105.851562 38.394531 108.058594 34.714844 108.183594 C 32.902344 108.246094 31.085938 108.203125 29.0625 108.210938 Z M 29.0625 108.210938 " fill-opacity="1" fill-rule="nonzero"/><path fill="#f8f9fa" d="M 39.011719 79.933594 C 40.746094 84.269531 39 87.5 34.578125 87.765625 C 30.136719 88.03125 25.671875 87.824219 21.035156 87.824219 C 21.035156 84.476562 21.035156 81.117188 21.035156 77.648438 C 25.78125 77.648438 30.511719 77.5 35.21875 77.746094 C 36.488281 77.8125 37.695312 79.078125 39.011719 79.933594 Z M 39.011719 79.933594 " fill-opacity="1" fill-rule="nonzero"/><path fill="#fbfcfc" d="M 337.003906 99.910156 C 335.835938 99.910156 334.867188 99.910156 333.636719 99.910156 C 336.179688 92.859375 338.660156 85.992188 341.261719 78.789062 C 343.867188 86 346.328125 92.816406 348.890625 99.910156 C 344.808594 99.910156 341.007812 99.910156 337.003906 99.910156 Z M 337.003906 99.910156 " fill-opacity="1" fill-rule="nonzero"/></svg>