<?xml version="1.0" encoding="UTF-8"?>
<svg version="1.1" xmlns="http://www.w3.org/2000/svg" width="800" height="600">
<path d="M0 0 C20.91375 -0.061875 20.91375 -0.061875 42.25 -0.125 C46.63055664 -0.14320801 51.01111328 -0.16141602 55.52441406 -0.18017578 C60.92919922 -0.18920898 60.92919922 -0.18920898 63.47015381 -0.19088745 C65.22130351 -0.19393165 66.97244938 -0.20090891 68.72357178 -0.21115112 C88.04344804 -0.31837111 106.55243948 0.87337106 121.12109375 15.06640625 C130.40044795 24.85655059 132.50349831 34.52113756 132.27734375 47.65625 C131.8301659 57.92576718 127.1291499 65.98568181 119.90625 73.046875 C114.438 78 114.438 78 112 78 C112 78.66 112 79.32 112 80 C112.71542969 80.103125 113.43085937 80.20625 114.16796875 80.3125 C123.15774884 82.49484662 130.77726643 89.62165705 136 97 C142.12327147 108.08952943 142.67245261 121.11383612 140.3515625 133.4453125 C136.63904022 144.58287935 128.53334061 152.77397966 118.4375 158.4375 C102.14965925 166.39202688 84.66430341 166.14842976 66.9921875 166.09765625 C65.27482129 166.09618338 63.55745464 166.0951648 61.84008789 166.09460449 C55.51838502 166.08939159 49.1966918 166.07543037 42.875 166.0625 C21.651875 166.0315625 21.651875 166.0315625 0 166 C0 111.22 0 56.44 0 0 Z M37 33 C37 44.22 37 55.44 37 67 C42.341875 67.04125 47.68375 67.0825 53.1875 67.125 C55.67253052 67.15231201 55.67253052 67.15231201 58.20776367 67.18017578 C75.55020018 67.62538556 75.55020018 67.62538556 91 61 C94.48814876 57.33297182 95.29279901 54.42603649 95.5 49.5 C95.29279901 44.57396351 94.48814876 41.66702818 91 38 C86.11874885 34.4891233 81.56361946 32.86893053 75.59863281 32.88647461 C74.7380426 32.88655014 73.87745239 32.88662567 72.99078369 32.88670349 C72.07085632 32.89186478 71.15092896 32.89702606 70.203125 32.90234375 C69.25435486 32.9037587 68.30558472 32.90517365 67.32806396 32.90663147 C64.30201038 32.91222258 61.27603117 32.92477348 58.25 32.9375 C56.19661565 32.94251615 54.14323014 32.94707885 52.08984375 32.95117188 C47.05984423 32.9613376 42.03000523 32.98091482 37 33 Z M37 98 C37 109.55 37 121.1 37 133 C43.67131773 133.04606203 50.34207734 133.08584315 57.01342773 133.10986328 C59.28004838 133.11988328 61.54665623 133.13350297 63.81323242 133.15087891 C67.0825518 133.17530362 70.35169936 133.18652343 73.62109375 133.1953125 C74.62458359 133.20563507 75.62807343 133.21595764 76.66197205 133.22659302 C86.61586397 133.22815881 94.07585763 132.10701928 101.8125 125.4375 C105.40369302 121.09026634 104.48142066 114.26771876 104 109 C101.81660468 103.90541092 98.8450429 102.00444369 94 99.76171875 C90.21640256 98.32070019 86.91439376 97.87644952 82.86425781 97.88647461 C81.33312347 97.88658791 81.33312347 97.88658791 79.77105713 97.88670349 C78.12868073 97.89444542 78.12868073 97.89444542 76.453125 97.90234375 C74.76361725 97.90446617 74.76361725 97.90446617 73.03997803 97.90663147 C69.44329165 97.91222801 65.84666756 97.9247799 62.25 97.9375 C59.81119882 97.94251545 57.37239666 97.94707828 54.93359375 97.95117188 C48.95568587 97.96134531 42.97791265 97.98092156 37 98 Z " fill="#000000" transform="translate(443,216)"/>
<path d="M0 0 C21.62229032 16.65640546 36.42760637 39.02638794 40.51171875 66.26171875 C43.79234087 92.83919122 37.88211779 119.71384432 21.51171875 141.26171875 C18.63731231 144.72510164 15.620832 148.00902301 12.51171875 151.26171875 C11.59326172 152.29232422 11.59326172 152.29232422 10.65625 153.34375 C-2.99660896 168.10281075 -25.36666143 178.17246161 -45.27050781 179.4387207 C-76.10841537 180.09983403 -100.33091849 173.87593327 -123.3125 152.41235352 C-141.95396175 134.44066354 -152.31128063 109.98179263 -152.96289062 84.22509766 C-153.08256022 67.60713338 -150.77489821 53.32642537 -143.48828125 38.26171875 C-143.05902344 37.36324219 -142.62976563 36.46476562 -142.1875 35.5390625 C-129.75938137 11.20795701 -108.37942089 -5.40403558 -82.6953125 -13.9140625 C-54.30159654 -21.21135125 -24.20513911 -16.90939859 0 0 Z M-120.48828125 49.26171875 C-121.23335937 49.86371094 -121.9784375 50.46570313 -122.74609375 51.0859375 C-131.04856597 57.9853787 -141.12907254 68.83799234 -144.48828125 79.26171875 C-143.48874463 90.86011537 -133.19874945 100.36017481 -125.48828125 108.26171875 C-124.50214844 109.35806641 -124.50214844 109.35806641 -123.49609375 110.4765625 C-107.96070379 127.31212458 -82.91809552 136.4196009 -60.48828125 137.484375 C-33.43727413 138.28802567 -8.77516441 128.9888505 11.51171875 111.26171875 C12.2696875 110.60558594 13.02765625 109.94945312 13.80859375 109.2734375 C20.02893414 103.46363958 24.84294361 96.33845245 29.51171875 89.26171875 C29.92615234 88.67406738 30.34058594 88.08641602 30.76757812 87.48095703 C32.77241898 84.42416241 33.6109417 82.83388027 32.9765625 79.17578125 C21.53377663 56.41226589 0.42666558 38.6421702 -23.48828125 30.26171875 C-57.3196356 19.97646953 -93.55016806 25.63261255 -120.48828125 49.26171875 Z " fill="#000000" transform="translate(231.48828125,218.73828125)"/>
<path d="M0 0 C1.70119995 0.01135986 1.70119995 0.01135986 3.43676758 0.02294922 C12.86183987 0.2063242 21.38494434 1.45474358 30.3125 4.4375 C30.94655762 4.64117187 31.58061523 4.84484375 32.23388672 5.0546875 C42.73374982 8.51811905 51.38756259 14.03180024 60.3125 20.4375 C59.68241697 24.2213261 57.94864374 26.68525305 55.75 29.7890625 C55.03585937 30.80484375 54.32171875 31.820625 53.5859375 32.8671875 C52.83570313 33.92164063 52.08546875 34.97609375 51.3125 36.0625 C49.83232529 38.15814254 48.35310879 40.2544623 46.875 42.3515625 C46.21628906 43.2792041 45.55757812 44.2068457 44.87890625 45.16259766 C43.30701589 47.33271124 43.30701589 47.33271124 42.3125 49.4375 C38.20353918 47.95095573 34.71710522 45.90942542 31 43.625 C17.89204717 35.96328469 3.8790141 32.00227316 -11.328125 34.94921875 C-14.42543027 35.94150359 -16.69034142 37.43984417 -19.1875 39.5 C-21.35233071 43.73946013 -21.34154002 47.76035335 -20.6875 52.4375 C-19.27484585 56.41129958 -17.24447406 57.5684923 -13.52734375 59.40234375 C-6.35049165 62.80934155 1.10858657 64.9412267 8.75 67 C50.15064901 78.29568888 50.15064901 78.29568888 60.98828125 96.6171875 C64.46573473 104.02344535 65.84524008 110.56835203 65.75 118.75 C65.74170166 119.67280762 65.73340332 120.59561523 65.72485352 121.54638672 C65.39549265 134.8825717 60.48857369 146.8242889 50.75 156.1875 C42.33716321 162.96994206 31.83253069 167.30061877 21.3125 169.4375 C20.42175781 169.62054688 19.53101563 169.80359375 18.61328125 169.9921875 C-9.3573192 173.76573596 -37.75358779 166.09310091 -60.125 149.0625 C-62.06916693 147.57943887 -63.87207982 146.08454225 -65.6875 144.4375 C-65.6875 143.7775 -65.6875 143.1175 -65.6875 142.4375 C-65.0275 142.4375 -64.3675 142.4375 -63.6875 142.4375 C-63.41204346 141.84364502 -63.13658691 141.24979004 -62.8527832 140.63793945 C-61.74505884 138.54619009 -60.60382957 136.99671318 -59.04296875 135.23046875 C-58.53056641 134.64330078 -58.01816406 134.05613281 -57.49023438 133.45117188 C-56.95720703 132.84853516 -56.42417969 132.24589844 -55.875 131.625 C-51.84987529 127.0625286 -48.1540683 122.44191745 -44.6875 117.4375 C-41.5700356 118.86984851 -38.76985256 120.66082018 -35.91772461 122.56005859 C-20.57261521 132.74554997 -3.72125086 139.55391918 15.0859375 135.8984375 C19.53147688 134.55443722 22.93631999 132.70817438 26.3125 129.4375 C28.3001743 125.4621514 27.83334616 120.76115069 27.3125 116.4375 C21.4788796 107.18417109 6.4741108 104.90586759 -3.50662231 102.24459839 C-42.45585211 91.7787874 -42.45585211 91.7787874 -53.625 75.5 C-54.35440232 74.16793549 -55.04311726 72.81270707 -55.6875 71.4375 C-56.00460937 70.77105469 -56.32171875 70.10460937 -56.6484375 69.41796875 C-61.00037638 58.01908297 -60.14418701 42.53899562 -56.00390625 31.2578125 C-50.20098373 18.82543843 -40.75567377 10.32314041 -28.3515625 4.7265625 C-18.86908011 1.39050793 -10.04837561 -0.09507361 0 0 Z " fill="#000000" transform="translate(655.6875,213.5625)"/>
<path d="M0 0 C-1.56232021 3.67956291 -3.83584082 6.16515793 -6.5625 9.0625 C-10.95695436 13.79401092 -15.0257231 18.68437084 -18.9921875 23.78515625 C-20.92721879 25.91971411 -22.35037625 26.9484677 -25 28 C-25.55945313 27.50371094 -26.11890625 27.00742187 -26.6953125 26.49609375 C-37.91860786 16.98696729 -50.45942072 10.56979929 -65.375 10.6875 C-66.4897168 10.69487183 -66.4897168 10.69487183 -67.62695312 10.70239258 C-79.21202722 10.94858803 -89.69076554 15.33431399 -98.30859375 23.15234375 C-109.68647237 35.58129661 -112.74455355 50.66413313 -112.13623047 67.00195312 C-111.3445748 78.61290292 -106.0216889 90.55704079 -98 99 C-86.38228873 108.84585929 -74.07756526 111.85570535 -59.10449219 111.17480469 C-44.98693146 110.00216275 -34.0170808 102.44303605 -24 93 C-20.44961928 94.50712301 -18.20886613 96.57166092 -15.5234375 99.31640625 C-14.688125 100.16267578 -13.8528125 101.00894531 -12.9921875 101.88085938 C-12.12851562 102.76580078 -11.26484375 103.65074219 -10.375 104.5625 C-8.65585815 106.31597382 -6.93460987 108.06738575 -5.2109375 109.81640625 C-4.45087402 110.59443604 -3.69081055 111.37246582 -2.90771484 112.17407227 C-1.12442375 114.06086128 -1.12442375 114.06086128 1 115 C1 118 1 118 -0.36328125 119.5078125 C-2.57324961 121.34133335 -4.78448933 123.17317541 -7 125 C-8.19689453 126.07701172 -8.19689453 126.07701172 -9.41796875 127.17578125 C-23.9084623 139.86866441 -41.80335089 146.21244516 -61 147 C-61.78503906 147.0515625 -62.57007813 147.103125 -63.37890625 147.15625 C-85.75702383 147.97621156 -108.07263802 140.38689524 -124.6875 125.3125 C-141.27860023 109.63904912 -151.33983428 88.81747104 -152.203125 65.84375 C-152.66205766 40.46012673 -145.16949311 19.06129035 -128 0 C-92.59485463 -36.5787966 -36.05282958 -30.7529939 0 0 Z " fill="#000000" transform="translate(430,238)"/>
<path d="M0 0 C10.61290596 11.28570777 15.05716091 25.32505283 14.8984375 40.5625 C14.02944783 55.49624844 6.4153036 68.12814617 -4.3125 78.1875 C-16.40237501 88.24845135 -31.08861483 90.38723499 -46.3125 89.1875 C-60.79458491 86.52814548 -73.10933091 78.462326 -81.5625 66.5 C-88.89850633 55.01316887 -91.95790658 41.74320156 -89.8515625 28.23046875 C-86.51003706 13.23291632 -78.74727071 0.93772328 -65.9375 -7.75 C-44.11331241 -20.62225775 -18.44190577 -17.32209366 0 0 Z " fill="#000000" transform="translate(213.3125,262.8125)"/>
</svg>
