<svg version="1.1" id="Layer_1" xmlns="http://www.w3.org/2000/svg" xmlns:xlink="http://www.w3.org/1999/xlink" x="0px" y="0px"
	 width="100%" viewBox="0 0 407 124" enable-background="new 0 0 407 124" xml:space="preserve">
<path fill="#FCFCFC" opacity="1.000000" stroke="none" 
	d="
M408.000000,90.000000 
	C408.000000,101.652931 408.000000,113.305870 408.000000,125.000000 
	C295.979095,125.000000 183.958206,125.000000 71.590843,124.626053 
	C98.707130,120.383591 120.694794,96.947220 122.976662,69.111305 
	C125.414909,39.367767 108.468933,12.974991 81.144447,4.071634 
	C77.484581,2.879112 73.717453,2.015776 70.000000,1.000000 
	C182.547806,1.000000 295.095612,1.000000 408.000000,1.000000 
	C408.000000,26.353113 408.000000,51.707897 407.656525,77.370438 
	C406.315796,69.837914 402.143463,63.887825 395.396942,60.267109 
	C389.756439,57.239979 383.604034,55.103844 377.552124,52.923302 
	C371.015167,50.568005 364.247253,48.844475 357.745087,46.405521 
	C354.068359,45.026390 351.902405,41.898716 352.259064,37.763916 
	C352.609009,33.706596 355.071625,31.073687 358.935303,29.973484 
	C360.981445,29.390829 363.148956,29.054218 365.276367,28.967812 
	C375.742065,28.542730 384.310333,33.602634 392.958038,39.042568 
	C396.892334,33.292545 400.706879,27.717569 404.791290,21.748133 
	C401.682800,19.731150 399.073120,17.684204 396.171295,16.213673 
	C380.190796,8.115361 363.596466,5.362971 346.787537,12.998018 
	C334.693176,18.491585 329.424835,28.655333 329.780426,42.022659 
	C330.121216,54.832176 336.804596,62.666821 348.197754,67.109566 
	C352.198730,68.669724 356.386230,69.746468 360.468018,71.105606 
	C367.056122,73.299286 373.696838,75.361946 380.178009,77.839272 
	C383.751160,79.205055 385.418182,82.214714 385.211456,86.192924 
	C385.003326,90.198563 382.883606,93.101410 379.269653,93.921219 
	C374.665497,94.965668 369.783356,95.709183 365.114624,95.353561 
	C355.212402,94.599281 346.971039,89.539131 339.019043,83.235924 
	C334.457306,88.670700 330.041565,93.931564 325.457367,99.393112 
	C341.975525,112.833809 360.240448,118.390434 380.723816,114.784981 
	C391.588440,112.872612 400.686401,107.536346 405.318146,96.672058 
	C406.257965,94.467598 407.108368,92.225014 408.000000,90.000000 
M232.616928,82.499802 
	C232.616928,92.939613 232.616928,103.379425 232.616928,114.266617 
	C247.829498,114.266617 262.606049,114.380020 277.379425,114.212234 
	C283.510071,114.142624 289.709381,113.944588 295.745789,112.980515 
	C310.147583,110.680397 319.332184,102.179024 320.776550,89.757797 
	C322.090271,78.459862 319.317535,66.919022 303.001434,60.519905 
	C302.729401,60.413216 302.557007,60.052364 302.323486,59.793884 
	C302.468689,59.544987 302.550262,59.196339 302.763763,59.069290 
	C313.050934,52.947128 316.727631,43.561409 314.748901,32.272778 
	C312.711609,20.650032 304.651520,14.089664 293.492188,11.969396 
	C286.212921,10.586340 278.660767,10.340940 271.218170,10.183006 
	C258.448151,9.912024 245.668259,10.108116 232.616898,10.108116 
	C232.616898,34.244316 232.616898,57.872055 232.616928,82.499802 
M219.644394,28.197720 
	C220.715836,26.962296 221.787277,25.726873 222.851685,24.499569 
	C200.917908,2.155183 161.880859,2.998628 140.990463,26.174921 
	C120.660080,48.729919 123.831604,86.448486 147.611267,104.915497 
	C170.462677,122.661636 208.562195,118.815834 223.094513,97.472519 
	C218.376160,92.818268 213.688904,88.194710 208.983826,83.553551 
	C189.297348,98.036644 172.749603,98.949852 160.473373,86.128693 
	C148.882523,74.023300 148.233597,52.995026 159.186859,39.983063 
	C163.826324,34.471603 169.740799,31.069422 176.968979,29.878368 
	C189.554230,27.804575 199.448318,33.288910 208.543320,41.115692 
	C212.243896,36.802345 215.710358,32.761887 219.644394,28.197720 
z"/>
<path fill="#020202" opacity="1.000000" stroke="none" 
	d="
M69.532394,1.000000 
	C73.717453,2.015776 77.484581,2.879112 81.144447,4.071634 
	C108.468933,12.974991 125.414909,39.367767 122.976662,69.111305 
	C120.694794,96.947220 98.707130,120.383591 71.122185,124.626053 
	C64.978851,125.000000 58.957695,125.000000 52.353436,124.635422 
	C50.823215,123.981750 49.887657,123.645424 48.927299,123.410461 
	C25.521465,117.684250 10.766457,102.867287 3.463008,80.198250 
	C2.685460,77.784828 1.823044,75.398758 1.000000,73.000000 
	C1.000000,66.312355 1.000000,59.624710 1.363828,52.353661 
	C2.127710,50.339928 2.531401,48.910606 2.927272,47.479115 
	C8.822285,26.162428 22.218174,11.758089 42.947689,4.168358 
	C46.243347,2.961714 49.646530,2.048743 53.000000,1.000000 
	C58.354931,1.000000 63.709858,1.000000 69.532394,1.000000 
M116.481766,67.889923 
	C119.508469,64.477806 118.710709,61.338238 116.469803,57.682114 
	C91.385300,16.755877 31.975170,17.176455 7.433461,58.465561 
	C5.618166,61.519623 5.505159,63.804188 7.349323,66.972374 
	C31.729582,108.856628 89.264839,109.712875 116.481766,67.889923 
z"/>
<path fill="#020202" opacity="1.000000" stroke="none" 
	d="
M408.000000,89.539368 
	C407.108368,92.225014 406.257965,94.467598 405.318146,96.672058 
	C400.686401,107.536346 391.588440,112.872612 380.723816,114.784981 
	C360.240448,118.390434 341.975525,112.833809 325.457367,99.393112 
	C330.041565,93.931564 334.457306,88.670700 339.019043,83.235924 
	C346.971039,89.539131 355.212402,94.599281 365.114624,95.353561 
	C369.783356,95.709183 374.665497,94.965668 379.269653,93.921219 
	C382.883606,93.101410 385.003326,90.198563 385.211456,86.192924 
	C385.418182,82.214714 383.751160,79.205055 380.178009,77.839272 
	C373.696838,75.361946 367.056122,73.299286 360.468018,71.105606 
	C356.386230,69.746468 352.198730,68.669724 348.197754,67.109566 
	C336.804596,62.666821 330.121216,54.832176 329.780426,42.022659 
	C329.424835,28.655333 334.693176,18.491585 346.787537,12.998018 
	C363.596466,5.362971 380.190796,8.115361 396.171295,16.213673 
	C399.073120,17.684204 401.682800,19.731150 404.791290,21.748133 
	C400.706879,27.717569 396.892334,33.292545 392.958038,39.042568 
	C384.310333,33.602634 375.742065,28.542730 365.276367,28.967812 
	C363.148956,29.054218 360.981445,29.390829 358.935303,29.973484 
	C355.071625,31.073687 352.609009,33.706596 352.259064,37.763916 
	C351.902405,41.898716 354.068359,45.026390 357.745087,46.405521 
	C364.247253,48.844475 371.015167,50.568005 377.552124,52.923302 
	C383.604034,55.103844 389.756439,57.239979 395.396942,60.267109 
	C402.143463,63.887825 406.315796,69.837914 407.656525,77.839096 
	C408.000000,81.692909 408.000000,85.385818 408.000000,89.539368 
z"/>
<path fill="#FCFCFC" opacity="1.000000" stroke="none" 
	d="
M1.000000,73.468658 
	C1.823044,75.398758 2.685460,77.784828 3.463008,80.198250 
	C10.766457,102.867287 25.521465,117.684250 48.927299,123.410461 
	C49.887657,123.645424 50.823215,123.981750 51.885162,124.635422 
	C35.072529,125.000000 18.145061,125.000000 1.000000,125.000000 
	C1.000000,107.979721 1.000000,90.958519 1.000000,73.468658 
z"/>
<path fill="#FCFCFC" opacity="1.000000" stroke="none" 
	d="
M52.531342,1.000000 
	C49.646530,2.048743 46.243347,2.961714 42.947689,4.168358 
	C22.218174,11.758089 8.822285,26.162428 2.927272,47.479115 
	C2.531401,48.910606 2.127710,50.339928 1.363828,51.885132 
	C1.000000,35.072529 1.000000,18.145058 1.000000,1.000000 
	C18.020277,1.000000 35.041481,1.000000 52.531342,1.000000 
z"/>
<path fill="#030303" opacity="1.000000" stroke="none" 
	d="
M232.616913,81.999802 
	C232.616898,57.872055 232.616898,34.244316 232.616898,10.108116 
	C245.668259,10.108116 258.448151,9.912024 271.218170,10.183006 
	C278.660767,10.340940 286.212921,10.586340 293.492188,11.969396 
	C304.651520,14.089664 312.711609,20.650032 314.748901,32.272778 
	C316.727631,43.561409 313.050934,52.947128 302.763763,59.069290 
	C302.550262,59.196339 302.468689,59.544987 302.323486,59.793884 
	C302.557007,60.052364 302.729401,60.413216 303.001434,60.519905 
	C319.317535,66.919022 322.090271,78.459862 320.776550,89.757797 
	C319.332184,102.179024 310.147583,110.680397 295.745789,112.980515 
	C289.709381,113.944588 283.510071,114.142624 277.379425,114.212234 
	C262.606049,114.380020 247.829498,114.266617 232.616928,114.266617 
	C232.616928,103.379425 232.616928,92.939613 232.616913,81.999802 
M272.498749,94.369537 
	C277.816467,94.198036 283.186310,94.429886 288.438477,93.751129 
	C294.749817,92.935486 298.325531,88.709480 298.383759,83.178650 
	C298.446167,77.252899 294.991852,72.574005 288.434540,72.205536 
	C277.392334,71.585045 266.290009,72.035515 255.146759,72.035515 
	C255.146759,79.227013 255.146759,86.752533 255.146759,94.369545 
	C260.852051,94.369545 266.175751,94.369545 272.498749,94.369537 
M292.456482,42.935432 
	C292.655151,35.774765 290.248322,31.571661 283.468597,30.990482 
	C274.015381,30.180124 264.440765,30.786356 255.042694,30.786356 
	C255.042694,37.853386 255.042694,44.935265 255.042694,51.975292 
	C263.920868,51.975292 272.538696,52.292618 281.118195,51.855942 
	C286.241241,51.595192 290.863922,49.563560 292.456482,42.935432 
z"/>
<path fill="#020202" opacity="1.000000" stroke="none" 
	d="
M219.410599,28.459576 
	C215.710358,32.761887 212.243896,36.802345 208.543320,41.115692 
	C199.448318,33.288910 189.554230,27.804575 176.968979,29.878368 
	C169.740799,31.069422 163.826324,34.471603 159.186859,39.983063 
	C148.233597,52.995026 148.882523,74.023300 160.473373,86.128693 
	C172.749603,98.949852 189.297348,98.036644 208.983826,83.553551 
	C213.688904,88.194710 218.376160,92.818268 223.094513,97.472519 
	C208.562195,118.815834 170.462677,122.661636 147.611267,104.915497 
	C123.831604,86.448486 120.660080,48.729919 140.990463,26.174921 
	C161.880859,2.998628 200.917908,2.155183 222.851685,24.499569 
	C221.787277,25.726873 220.715836,26.962296 219.410599,28.459576 
z"/>
<path fill="#F9F9F9" opacity="1.000000" stroke="none" 
	d="
M116.275131,68.195618 
	C89.264839,109.712875 31.729582,108.856628 7.349323,66.972374 
	C5.505159,63.804188 5.618166,61.519623 7.433461,58.465561 
	C31.975170,17.176455 91.385300,16.755877 116.469803,57.682114 
	C118.710709,61.338238 119.508469,64.477806 116.275131,68.195618 
M87.958206,42.624489 
	C76.815643,29.789339 60.612953,26.398970 46.647888,33.980412 
	C33.142311,41.312408 26.361643,56.750282 30.516008,71.261635 
	C34.294170,84.458900 43.030510,92.683380 56.561436,95.022339 
	C70.774010,97.479134 82.340622,92.377045 89.877373,80.178185 
	C97.504776,67.832588 96.670456,55.224419 87.958206,42.624489 
z"/>
<path fill="#FCFCFC" opacity="1.000000" stroke="none" 
	d="
M271.999084,94.369537 
	C266.175751,94.369545 260.852051,94.369545 255.146759,94.369545 
	C255.146759,86.752533 255.146759,79.227013 255.146759,72.035515 
	C266.290009,72.035515 277.392334,71.585045 288.434540,72.205536 
	C294.991852,72.574005 298.446167,77.252899 298.383759,83.178650 
	C298.325531,88.709480 294.749817,92.935486 288.438477,93.751129 
	C283.186310,94.429886 277.816467,94.198036 271.999084,94.369537 
z"/>
<path fill="#FCFCFC" opacity="1.000000" stroke="none" 
	d="
M292.343079,43.303432 
	C290.863922,49.563560 286.241241,51.595192 281.118195,51.855942 
	C272.538696,52.292618 263.920868,51.975292 255.042694,51.975292 
	C255.042694,44.935265 255.042694,37.853386 255.042694,30.786356 
	C264.440765,30.786356 274.015381,30.180124 283.468597,30.990482 
	C290.248322,31.571661 292.655151,35.774765 292.343079,43.303432 
z"/>
<path fill="#020202" opacity="1.000000" stroke="none" 
	d="
M88.164024,42.923225 
	C96.670456,55.224419 97.504776,67.832588 89.877373,80.178185 
	C82.340622,92.377045 70.774010,97.479134 56.561436,95.022339 
	C43.030510,92.683380 34.294170,84.458900 30.516008,71.261635 
	C26.361643,56.750282 33.142311,41.312408 46.647888,33.980412 
	C60.612953,26.398970 76.815643,29.789339 88.164024,42.923225 
z"/>
</svg>