<?xml version="1.0" encoding="UTF-8"?>
<svg version="1.1" xmlns="http://www.w3.org/2000/svg" width="1024" height="251">
<path d="M0 0 C17.82 -0.0825 35.64 -0.165 54 -0.25 C59.59710937 -0.28641602 65.19421875 -0.32283203 70.9609375 -0.36035156 C77.87109375 -0.37841797 77.87109375 -0.37841797 81.12060547 -0.3817749 C83.35826818 -0.38786007 85.59591896 -0.40180771 87.83349609 -0.42230225 C108.80648775 -0.6045581 127.77130242 0.53097643 143.7421875 15.67578125 C153.94498285 26.17865881 157.72630031 37.35255761 158.0703125 51.9921875 C157.65151351 60.68842529 154.09260008 68.73332563 148 75 C145.39608047 77.09216656 142.72805753 79.07314383 140 81 C140.64066406 81.49628906 141.28132812 81.99257812 141.94140625 82.50390625 C153.12921796 91.29075688 161.61784373 99.16282076 163.78125 113.890625 C164.87422271 129.42645144 161.86223856 145.68020713 151.9375 158.0625 C140.4800427 170.5237089 123.58696864 175.20494606 107.18278122 176.16485214 C99.54891949 176.41437647 91.91391894 176.34554815 84.27734375 176.29296875 C82.11039462 176.28854609 79.94344225 176.28549285 77.77648926 176.28381348 C69.83010995 176.2682216 61.88379969 176.22633844 53.9375 176.1875 C36.138125 176.125625 18.33875 176.06375 0 176 C0 117.92 0 59.84 0 0 Z M38 34 C38 44.56 38 55.12 38 66 C49.33296838 66.11650789 49.33296838 66.11650789 60.66601562 66.1953125 C65.29421528 66.21914554 69.92209585 66.24721882 74.55004883 66.30175781 C78.28482604 66.3454913 82.01926068 66.36919443 85.75427437 66.37950897 C87.17313587 66.38685143 88.59198043 66.40118869 90.0106945 66.42292023 C98.01359071 66.54053652 105.14159001 66.55680278 112 62 C116.55046005 57.22201695 117.35011359 53.97374513 117.28515625 47.54296875 C116.77384007 42.9831491 114.38233206 40.33466544 111.1875 37.25 C106.18754561 34.39288321 101.00180082 33.75048792 95.33032227 33.77294922 C94.04952286 33.77310028 92.76872345 33.77325134 91.44911194 33.77340698 C90.07154175 33.78361711 88.69397319 33.79404904 87.31640625 33.8046875 C85.89151712 33.80842279 84.46662541 33.81126733 83.04173279 33.81326294 C79.31154145 33.82085879 75.5815086 33.84047191 71.85137939 33.8626709 C67.36506678 33.88683652 62.87870084 33.89592962 58.39234161 33.90757751 C51.59478456 33.92689917 44.79757449 33.96524955 38 34 Z M38 100 C38 113.53 38 127.06 38 141 C45.99994443 141.06315746 53.99896978 141.12323325 61.99894714 141.15525055 C65.72548242 141.17099966 69.45180824 141.1919949 73.17822266 141.22631836 C76.77683801 141.25925193 80.37525206 141.27692343 83.97400665 141.28463173 C85.99443713 141.29275785 88.01478821 141.31612094 90.03509521 141.33988953 C101.08156767 141.34187544 111.0818961 140.6711593 119.4765625 132.9140625 C123.92102169 127.32999839 123.73219386 120.81573046 123 114 C121.39492013 109.12402763 118.32802626 105.69299412 114 103 C106.15426299 99.22402173 97.95823878 99.61246633 89.46484375 99.70703125 C87.97555471 99.71263694 86.48626008 99.71690243 84.9969635 99.71989441 C81.10560427 99.73126675 77.21458899 99.76066672 73.32336426 99.79400635 C68.63930619 99.83031409 63.95513216 99.84390472 59.27097321 99.86136627 C52.18041069 99.89031006 45.09060062 99.94784903 38 100 Z " fill="#000000" transform="translate(664,71)"/>
<path d="M0 0 C13.86 0 27.72 0 42 0 C53.21903274 14.58474257 53.21903274 14.58474257 58.625 22 C63.75258608 29.00079755 68.97206379 35.92445132 74.25 42.8125 C78.99509278 49.00788665 83.65469315 55.23807637 88.14038086 61.62329102 C91.89741342 66.93458369 95.85377761 72.08808636 99.8125 77.25 C106.61765564 86.12429624 113.23143085 95.11886001 119.7199707 104.22680664 C121.12210961 106.16915547 122.5626634 108.0835512 124 110 C124.33 73.7 124.66 37.4 125 0 C137.87 0 150.74 0 164 0 C164 58.08 164 116.16 164 176 C122 176 122 176 113.25 167.6875 C111.87761442 165.04453205 110.5045156 162.39786481 109.29443359 159.67675781 C107.13500356 155.21127481 104.08995382 151.46755404 101.0625 147.5625 C99.89336463 145.98325335 98.72801356 144.40119833 97.56640625 142.81640625 C93.27848543 137.01356999 88.94186843 131.24753709 84.60571289 125.48071289 C79.78905076 119.06867555 75.02509378 112.61939529 70.27832031 106.15551758 C65.40229128 99.5242006 60.46695512 92.93847641 55.5 86.375 C50.19509833 79.33764171 45.12919193 72.1808687 40 65 C39.67 101.63 39.34 138.26 39 176 C26.13 176 13.26 176 0 176 C0 117.92 0 59.84 0 0 Z " fill="#000000" transform="translate(466,71)"/>
<path d="M0 0 C5.23157761 4.41030399 10.19522207 9.13029264 15 14 C13.61370756 17.12324544 12.00488429 19.24190707 9.5859375 21.64453125 C8.90660156 22.32193359 8.22726562 22.99933594 7.52734375 23.69726562 C6.46193359 24.74430664 6.46193359 24.74430664 5.375 25.8125 C4.68792969 26.49892578 4.00085938 27.18535156 3.29296875 27.89257812 C-2.49624491 33.63291474 -8.4291039 39.16034165 -15 44 C-15.63164063 43.35933594 -16.26328125 42.71867187 -16.9140625 42.05859375 C-27.61182051 31.71537239 -39.86731681 25.19468552 -55 24 C-55.66515625 23.94585937 -56.3303125 23.89171875 -57.015625 23.8359375 C-71.82183058 23.23272172 -86.32536917 28.80630414 -97.5 38.375 C-106.27795341 46.86515166 -112.94543972 57.96352402 -113.29272461 70.38012695 C-113.43618305 85.30511828 -108.9637884 97.73640614 -98.6875 108.8125 C-87.17595595 119.55318172 -71.90652487 124.36300151 -56.3984375 123.97827148 C-39.72513473 123.241147 -26.18477171 117.89262486 -13.49609375 107.09375 C-10.77414767 104.81055267 -8.01214878 102.87241681 -5 101 C0.46290875 106.95366652 5.7175834 113.02015234 10.77734375 119.3203125 C13.58567413 122.70610273 16.59277539 125.87956865 19.6640625 129.02734375 C21 131 21 131 21.03515625 132.9609375 C14.4696239 145.89379745 -8.91689419 156.76061398 -21.85791016 161.02246094 C-22.5441748 161.24192383 -23.23043945 161.46138672 -23.9375 161.6875 C-24.88568604 161.99155762 -24.88568604 161.99155762 -25.85302734 162.30175781 C-46.07680101 168.44945658 -69.87169756 168.6138008 -90 162 C-90.65597168 161.78569336 -91.31194336 161.57138672 -91.98779297 161.35058594 C-105.90993019 156.62620546 -117.48842709 149.20294296 -128 139 C-128.67417969 138.39929688 -129.34835937 137.79859375 -130.04296875 137.1796875 C-146.69070924 121.8278789 -155.18071642 99.32997196 -156.125 77.05078125 C-156.60756528 52.04786762 -148.11787108 29.60564223 -131.2265625 11.25390625 C-97.74154053 -23.38824339 -38.8425434 -29.52941896 0 0 Z " fill="#000000" transform="translate(1003,85)"/>
<path d="M0 0 C0.87696533 0.00757324 1.75393066 0.01514648 2.6574707 0.02294922 C9.42906602 0.19482667 15.10671844 1.17420882 21.125 4.4375 C22.300625 5.07365234 22.300625 5.07365234 23.5 5.72265625 C33.65488521 11.88077076 39.48020724 20.23719265 43.125 31.4375 C45.57593016 41.94163575 43.76359071 52.68485029 42.21313477 63.19873047 C42.00714308 64.63891999 41.80189329 66.07921578 41.59732056 67.51960754 C41.04489212 71.39425639 40.48216827 75.26734467 39.91742063 79.14021444 C39.32598646 83.20842922 38.74410016 87.27800975 38.16111755 91.34744263 C37.18214146 98.17187947 36.19716548 104.99542654 35.20776367 111.81835938 C33.81363823 121.43227753 32.42980728 131.04765588 31.04831612 140.6633966 C29.19566292 153.55557295 27.33954805 166.44725656 25.47253799 179.33736229 C25.27117233 180.72807047 25.07001657 182.11880905 24.86908913 183.50958061 C24.59419502 185.41182389 24.31836684 187.31393211 24.04249573 189.21603394 C23.81158659 190.81040189 23.81158659 190.81040189 23.57601261 192.43697929 C23.12416838 195.44303265 22.63306931 198.44048224 22.125 201.4375 C21.465 201.4375 20.805 201.4375 20.125 201.4375 C19.61340332 200.25873291 19.10180664 199.07996582 18.57470703 197.86547852 C9.31739175 176.53923011 0.04557447 155.21975731 -9.3125 133.9375 C-16.0471235 118.61745828 -22.76136254 103.28938329 -29.37695312 87.91748047 C-30.40235543 85.53545889 -31.42979836 83.154315 -32.45898438 80.77392578 C-34.00121611 77.2067525 -35.53247239 73.63492598 -37.0625 70.0625 C-37.52068115 69.00426025 -37.9788623 67.94602051 -38.45092773 66.85571289 C-44.18485873 53.39339254 -45.92144319 41.53758045 -41.078125 27.3828125 C-39.4345724 23.35931035 -37.46423689 19.91653656 -34.875 16.4375 C-34.17375 15.426875 -33.4725 14.41625 -32.75 13.375 C-24.45146418 3.823855 -12.24995926 -0.14891412 0 0 Z " fill="#EF1440" transform="translate(161.875,-0.4375)"/>
<path d="M0 0 C14.58431636 10.45209339 20.45260781 25.79987138 27.30307007 41.68746948 C29.15816696 45.9888739 31.02493465 50.28521358 32.890625 54.58203125 C33.27981613 55.47899216 33.66900726 56.37595306 34.06999207 57.3000946 C38.45289652 67.3913644 42.90496446 77.45186159 47.359375 87.51171875 C53.09004528 100.46032473 58.80893085 113.41379882 64.484375 126.38671875 C64.76147308 127.01963837 65.03857117 127.65255798 65.32406616 128.30465698 C67.11299393 132.39177524 68.89349619 136.48250166 70.671875 140.57421875 C70.95158142 141.21292908 71.23128784 141.8516394 71.51947021 142.50970459 C72.36921495 144.45033219 73.21430811 146.39292977 74.05859375 148.3359375 C74.55963623 149.48408936 75.06067871 150.63224121 75.5769043 151.81518555 C76.671875 154.57421875 76.671875 154.57421875 76.671875 156.57421875 C71.6588321 154.91434042 67.63799786 152.01530658 63.32421875 149.0546875 C62.49612701 148.49244476 61.66803528 147.93020203 60.81484985 147.35092163 C59.01874209 146.13114534 57.223993 144.90936655 55.43045044 143.68582153 C50.59892393 140.39049895 45.75689742 137.11070417 40.9140625 133.83203125 C39.91047195 133.15235794 38.90688141 132.47268463 37.87287903 131.77241516 C25.29752268 123.27105235 12.60178239 114.95228353 -0.10375977 106.6472168 C-9.69259759 100.36707801 -19.17414606 93.96395287 -28.53318787 87.34510803 C-33.5099939 83.82646326 -38.54290461 80.41490488 -43.640625 77.07421875 C-55.57070067 69.14979377 -63.86486976 61.11288384 -66.89453125 46.47265625 C-68.71753304 34.28646409 -66.46752016 21.75725079 -59.328125 11.57421875 C-58.79703125 10.81367187 -58.2659375 10.053125 -57.71875 9.26953125 C-44.66092734 -7.30385905 -17.77160938 -10.88361984 0 0 Z " fill="#FF7011" transform="translate(101.328125,67.42578125)"/>
<path d="M0 0 C2.0903584 1.44593192 3.91749438 2.98312597 5.77734375 4.71484375 C6.46699219 5.35164063 7.15664063 5.9884375 7.8671875 6.64453125 C17.02691643 15.95777519 20.07797377 28.01259242 20.09204102 40.77001953 C19.874142 51.43288853 16.19183903 60.10031712 8.77734375 67.71484375 C3.60760683 72.51432206 -1.78097276 76.64834505 -7.6796875 80.50390625 C-8.88497353 81.30254845 -8.88497353 81.30254845 -10.11460876 82.11732483 C-11.84641716 83.26405123 -13.57995579 84.40816813 -15.31506348 85.54989624 C-20.03285714 88.65442382 -24.73803496 91.77799815 -29.4453125 94.8984375 C-30.4197934 95.54361832 -31.39427429 96.18879913 -32.39828491 96.85353088 C-41.73822188 103.04231585 -51.02197746 109.31270589 -60.29992676 115.59387207 C-74.57554193 125.25330293 -88.87368598 134.88026304 -103.24157715 144.40200806 C-104.92758848 145.5207899 -106.61177795 146.6423225 -108.29406738 147.76669312 C-110.59982616 149.30671361 -112.9120969 150.83638884 -115.2265625 152.36328125 C-115.91079788 152.82312912 -116.59503326 153.28297699 -117.30000305 153.75675964 C-118.90174556 154.80517457 -120.55771785 155.76999824 -122.22265625 156.71484375 C-122.88265625 156.38484375 -123.54265625 156.05484375 -124.22265625 155.71484375 C-123.12109375 153.20572917 -122.01953125 150.69661458 -120.91796875 148.1875 C-120.56765594 147.38956528 -120.21734314 146.59163055 -119.85641479 145.76951599 C-119.48743073 144.92905228 -119.11844666 144.08858856 -118.73828125 143.22265625 C-118.34962891 142.33739258 -117.96097656 141.45212891 -117.56054688 140.54003906 C-113.16162109 130.52026367 -113.16162109 130.52026367 -108.76269531 120.50048828 C-108.33815063 119.53346985 -107.91360596 118.56645142 -107.47619629 117.57012939 C-106.28198242 114.84997559 -105.08776855 112.12982178 -103.89355469 109.40966797 C-103.52154434 108.56231079 -103.149534 107.71495361 -102.76625061 106.84191895 C-102.0239317 105.15108199 -101.28161196 103.4602454 -100.53929138 101.76940918 C-98.69324827 97.56454309 -96.84721979 93.35967058 -95.0012207 89.15478516 C-91.52312999 81.23230104 -88.04490442 73.30987622 -84.56619263 65.38766479 C-82.94536048 61.69645508 -81.32460623 58.00521116 -79.70385742 54.31396484 C-78.94022421 52.57485281 -78.17655394 50.83575706 -77.4128418 49.09667969 C-76.69343214 47.45848066 -75.97413542 45.82023202 -75.25495911 44.18193054 C-74.56670245 42.61476628 -73.87782322 41.04787528 -73.1882782 39.48127747 C-71.53164849 35.71442455 -69.88822506 31.94278461 -68.27075195 28.15893555 C-67.95820969 27.43207047 -67.64566742 26.70520538 -67.32365417 25.95631409 C-66.74145381 24.60080882 -66.16331797 23.24354666 -65.59028625 21.88414001 C-60.42765766 9.89966874 -51.59091488 1.77372104 -39.73828125 -3.33984375 C-27.36851734 -7.98810907 -11.31900987 -6.54473505 0 0 Z " fill="#059DE0" transform="translate(371.22265625,67.28515625)"/>
<path d="M0 0 C9.14278 7.59177268 15.10395102 17.21289551 17 29 C18.24894348 43.05061419 15.11228981 54.82696981 6.4765625 65.96484375 C-1.67127293 75.04669934 -14.57001027 79.34128293 -26.47344208 80.2714138 C-30.3309354 80.36646189 -34.18209536 80.37217243 -38.04003906 80.34057617 C-39.50977053 80.33972785 -40.97950327 80.34020903 -42.44923401 80.34190369 C-46.40099094 80.34275708 -50.35246928 80.32523902 -54.30416203 80.30418181 C-58.44810093 80.28530432 -62.59204768 80.28365591 -66.73602295 80.28010559 C-74.56615463 80.27081741 -82.3961592 80.2462478 -90.22623515 80.21605712 C-99.14772836 80.18241205 -108.06922795 80.1660018 -116.99076891 80.15097082 C-135.32725108 80.119695 -153.66361528 80.06699797 -172 80 C-168.78908415 76.73327244 -165.76177259 73.98991592 -161.90625 71.51171875 C-160.84792969 70.82126465 -159.78960937 70.13081055 -158.69921875 69.41943359 C-158.11124512 69.03672302 -157.52327148 68.65401245 -156.91748047 68.25970459 C-153.2411506 65.8445094 -149.60865544 63.36412013 -145.96875 60.89453125 C-144.27548676 59.74835425 -142.58204041 58.60244772 -140.88842773 57.45678711 C-140.01113007 56.86332489 -139.1338324 56.26986267 -138.22994995 55.65841675 C-119.91863088 43.2768086 -101.52190874 31.0316414 -83.046875 18.89575195 C-82.18440155 18.32913849 -81.3219281 17.76252502 -80.43331909 17.17874146 C-78.74374791 16.06917742 -77.05375479 14.96025558 -75.36331177 13.85202026 C-71.21375722 11.12821719 -67.07819262 8.3861495 -62.96435547 5.60864258 C-62.15321793 5.06228653 -61.34208038 4.51593048 -60.50636292 3.95301819 C-58.98565651 2.9269233 -57.46748788 1.89705208 -55.95249939 0.86253357 C-38.40597589 -10.96865291 -17.66373015 -13.15828547 0 0 Z " fill="#04AC3E" transform="translate(409,167)"/>
<path d="M0 0 C2.39919496 1.64457374 4.80342928 3.28153833 7.20901489 4.91674805 C10.65915624 7.26263628 14.10746459 9.61118208 17.55447388 11.96166992 C25.56606788 17.42158591 33.59758764 22.85198711 41.63320923 28.27645874 C43.43037671 29.4897927 45.22717129 30.70367918 47.02359009 31.91812134 C56.992682 38.65620419 66.99133771 45.34349782 77.06619263 51.92260742 C77.95939713 52.50652252 78.85260162 53.09043762 79.77287292 53.69204712 C84.03194647 56.47454098 88.2963481 59.2482697 92.56985474 62.00854492 C94.07787367 62.99012366 95.58577461 63.9718837 97.09353638 64.95385742 C97.78811951 65.39823654 98.48270264 65.84261566 99.19833374 66.30046082 C100.7991411 67.34743184 102.35291636 68.46577459 103.89431763 69.59838867 C103.89431763 70.25838867 103.89431763 70.91838867 103.89431763 71.59838867 C84.67440395 71.6686149 65.45451647 71.72144336 46.23450089 71.75382519 C37.30937651 71.76926339 28.38433208 71.79029433 19.45925903 71.82470703 C11.67593541 71.85470302 3.89266971 71.8739858 -3.89071012 71.88065416 C-8.0081228 71.88454921 -12.12536984 71.89363886 -16.24272919 71.91557884 C-20.12673886 71.93610558 -24.01051635 71.94219018 -27.89457512 71.93771172 C-29.31182306 71.93852974 -30.72907964 71.94439833 -32.14628029 71.9560051 C-47.20044736 72.07313703 -58.22202615 68.88798808 -70.85568237 60.84838867 C-80.44888109 51.25518996 -84.44757456 40.42147867 -84.60568237 27.03588867 C-84.48270598 15.7220608 -81.65122717 7.14415685 -74.10568237 -1.40161133 C-73.5307605 -2.08094727 -72.95583862 -2.7602832 -72.36349487 -3.46020508 C-50.2859945 -27.69049075 -22.55683225 -15.46322229 0 0 Z " fill="#FCCC11" transform="translate(84.10568237304688,175.401611328125)"/>
<path d="M0 0 C10.06684631 7.44071249 15.94780613 16.9335141 18.23046875 29.23828125 C19.80290064 45.6920789 13.84428172 58.52551843 7.26660156 73.26123047 C5.23991984 77.80294068 3.23204987 82.3529647 1.22265625 86.90234375 C0.80739685 87.84152649 0.39213745 88.78070923 -0.03570557 89.74835205 C-4.36009409 99.54435592 -8.56888673 109.38874553 -12.76953125 119.23828125 C-18.94697885 133.70790941 -25.1952872 148.14468361 -31.51953125 162.55078125 C-31.89416504 163.40518799 -32.26879883 164.25959473 -32.65478516 165.13989258 C-36.93003027 174.88552104 -41.26178469 184.59742977 -45.76953125 194.23828125 C-47.75050525 191.26682025 -48.13607821 190.03862993 -48.61746216 186.63038635 C-48.75483795 185.68439072 -48.89221375 184.73839508 -49.03375244 183.76373291 C-49.17617371 182.72738708 -49.31859497 181.69104126 -49.46533203 180.62329102 C-49.62168121 179.53022141 -49.7780304 178.43715179 -49.93911743 177.31095886 C-50.4555387 173.68493115 -50.9605461 170.05741976 -51.46484375 166.4296875 C-51.8202708 163.90675277 -52.17614247 161.38388064 -52.53244019 158.86106873 C-53.27882112 153.56310467 -54.01966745 148.26440636 -54.75634766 142.96508789 C-55.60447166 136.86486217 -56.46404811 130.76633289 -57.32968152 124.66856915 C-58.16481445 118.78300948 -58.99055163 112.89615842 -59.81249619 107.00874138 C-60.16168122 104.51470455 -60.51332432 102.02101052 -60.86752701 99.52768135 C-61.36387978 96.02545989 -61.84951045 92.52190567 -62.33251953 89.01782227 C-62.47898926 87.99969452 -62.62545898 86.98156677 -62.77636719 85.93258667 C-65.32028533 67.1746666 -65.32028533 67.1746666 -61.39453125 60.42578125 C-56.48743141 54.01864379 -49.17622695 49.3093502 -41.76953125 46.23828125 C-40.77953125 46.23828125 -39.78953125 46.23828125 -38.76953125 46.23828125 C-39.48644039 42.98191381 -39.48644039 42.98191381 -42.6171875 41.59375 C-47.65821364 39.61882205 -52.85629511 39.67262625 -58.20703125 39.55078125 C-59.22474609 39.51662109 -60.24246094 39.48246094 -61.29101562 39.44726562 C-63.78374391 39.36534498 -66.27614527 39.29601476 -68.76953125 39.23828125 C-69.09576494 26.31797714 -66.80044935 15.02752072 -57.76953125 5.23828125 C-41.3816211 -8.87051557 -18.55914584 -11.80560617 0 0 Z " fill="#6D54DC" transform="translate(288.76953125,6.76171875)"/>
</svg>
